<svg width="1108" height="556" viewBox="0 0 1108 556" fill="none" xmlns="http://www.w3.org/2000/svg">
<g clip-path="url(#clip0_351_602)">
<rect width="1108" height="556" fill="white"/>
<rect y="-5" width="1304" height="566" fill="#453468"/>
<rect y="30" width="368" height="76" rx="5" fill="#8062BE"/>
<path d="M55.6364 67.5455C55.6364 71.3068 54.9318 74.5284 53.5227 77.2102C52.125 79.8807 50.2159 81.9261 47.7955 83.3466C45.3864 84.767 42.6534 85.4773 39.5966 85.4773C36.5398 85.4773 33.8011 84.767 31.3807 83.3466C28.9716 81.9148 27.0625 79.8636 25.6534 77.1932C24.2557 74.5114 23.5568 71.2955 23.5568 67.5455C23.5568 63.7841 24.2557 60.5682 25.6534 57.8977C27.0625 55.2159 28.9716 53.1648 31.3807 51.7443C33.8011 50.3239 36.5398 49.6136 39.5966 49.6136C42.6534 49.6136 45.3864 50.3239 47.7955 51.7443C50.2159 53.1648 52.125 55.2159 53.5227 57.8977C54.9318 60.5682 55.6364 63.7841 55.6364 67.5455ZM49.2784 67.5455C49.2784 64.8977 48.8636 62.6648 48.0341 60.8466C47.2159 59.017 46.0795 57.6364 44.625 56.7045C43.1705 55.7614 41.4943 55.2898 39.5966 55.2898C37.6989 55.2898 36.0227 55.7614 34.5682 56.7045C33.1136 57.6364 31.9716 59.017 31.142 60.8466C30.3239 62.6648 29.9148 64.8977 29.9148 67.5455C29.9148 70.1932 30.3239 72.4318 31.142 74.2614C31.9716 76.0795 33.1136 77.4602 34.5682 78.4034C36.0227 79.3352 37.6989 79.8011 39.5966 79.8011C41.4943 79.8011 43.1705 79.3352 44.625 78.4034C46.0795 77.4602 47.2159 76.0795 48.0341 74.2614C48.8636 72.4318 49.2784 70.1932 49.2784 67.5455ZM59.9105 63.8807V58.8182H82.8196V63.8807H74.348V85H68.3821V63.8807H59.9105ZM86.2841 77.8239H92.4034C92.4602 78.8011 92.8977 79.5568 93.7159 80.0909C94.5341 80.625 95.5966 80.892 96.9034 80.892C98.233 80.892 99.3523 80.6023 100.261 80.0227C101.182 79.4318 101.642 78.5398 101.642 77.3466C101.642 76.642 101.466 76.0227 101.114 75.4886C100.761 74.9432 100.267 74.5227 99.6307 74.2273C98.9943 73.9318 98.2443 73.7841 97.3807 73.7841H93.375V69.4034H97.3807C98.6648 69.4034 99.6364 69.108 100.295 68.517C100.966 67.9261 101.301 67.1818 101.301 66.2841C101.301 65.3182 100.949 64.5341 100.244 63.9318C99.5511 63.3295 98.5909 63.0284 97.3636 63.0284C96.1364 63.0284 95.1136 63.3068 94.2955 63.8636C93.4886 64.4205 93.0682 65.1364 93.0341 66.0114H86.9489C86.9716 64.4886 87.4261 63.1648 88.3125 62.0398C89.2102 60.9148 90.4148 60.0398 91.9261 59.4148C93.4489 58.7898 95.1648 58.4773 97.0739 58.4773C99.1193 58.4773 100.886 58.7841 102.375 59.3977C103.864 60.0114 105.011 60.8693 105.818 61.9716C106.625 63.0625 107.028 64.3466 107.028 65.8239C107.028 67.2443 106.585 68.4205 105.699 69.3523C104.813 70.2727 103.619 70.9318 102.119 71.3295V71.6023C103.153 71.6591 104.085 71.9545 104.915 72.4886C105.744 73.0114 106.403 73.7216 106.892 74.6193C107.381 75.517 107.625 76.5568 107.625 77.7386C107.625 79.3409 107.165 80.7273 106.244 81.8977C105.324 83.0568 104.057 83.9489 102.443 84.5739C100.841 85.1989 99.0057 85.5114 96.9375 85.5114C94.9261 85.5114 93.125 85.2102 91.5341 84.608C89.9545 83.9943 88.6989 83.1136 87.767 81.9659C86.8352 80.8182 86.3409 79.4375 86.2841 77.8239ZM116.659 67.3409H124.381C127.722 67.3409 130.307 68.1534 132.136 69.7784C133.966 71.4034 134.886 73.5341 134.898 76.1705C134.886 77.8864 134.466 79.4091 133.636 80.7386C132.818 82.0682 131.625 83.1136 130.057 83.875C128.5 84.625 126.608 85 124.381 85H112.483V58.8182H118.432V79.9375H124.381C125.722 79.9375 126.824 79.5966 127.688 78.9148C128.551 78.2216 128.983 77.3352 128.983 76.2557C128.983 75.1193 128.551 74.1932 127.688 73.4773C126.824 72.7614 125.722 72.4034 124.381 72.4034H116.659V67.3409ZM138.153 85V58.8182H144.324V85H138.153ZM150.686 85V58.8182H161.68C164.783 58.8182 167.232 59.4375 169.027 60.6761C170.834 61.9148 171.737 63.642 171.737 65.858C171.737 67.3239 171.226 68.5227 170.203 69.4545C169.192 70.375 167.811 70.9943 166.061 71.3125C167.436 71.4261 168.641 71.7727 169.675 72.3523C170.72 72.9318 171.538 73.6932 172.129 74.6364C172.72 75.5795 173.016 76.6648 173.016 77.892C173.016 79.3352 172.635 80.5909 171.874 81.6591C171.124 82.7159 170.027 83.5398 168.584 84.1307C167.152 84.7102 165.413 85 163.368 85H150.686ZM156.464 80.142H163.368C164.504 80.142 165.396 79.875 166.044 79.3409C166.692 78.7955 167.016 78.0568 167.016 77.125C167.016 76.0455 166.692 75.1989 166.044 74.5852C165.396 73.9602 164.504 73.6477 163.368 73.6477H156.464V80.142ZM156.464 69.6591H161.8C162.641 69.6591 163.362 69.5398 163.964 69.3011C164.567 69.0511 165.027 68.7045 165.345 68.2614C165.663 67.8068 165.822 67.267 165.822 66.642C165.822 65.7443 165.453 65.0398 164.714 64.5284C163.987 64.017 162.976 63.7614 161.68 63.7614H156.464V69.6591Z" fill="white"/>
<rect x="1140.73" y="-165.906" width="172.746" height="1444.62" transform="rotate(48.3071 1140.73 -165.906)" fill="#8062BE"/>
<rect x="1407.27" y="-118" width="593.327" height="1241.79" transform="rotate(48.3071 1407.27 -118)" fill="#8062BE"/>
<path d="M1247.5 86C1247.5 219.377 1139.38 327.5 1006 327.5C872.623 327.5 764.5 219.377 764.5 86C764.5 -47.3768 872.623 -155.5 1006 -155.5C1139.38 -155.5 1247.5 -47.3768 1247.5 86Z" fill="#453468" stroke="#8062BE" stroke-width="17"/>
</g>
<defs>
<clipPath id="clip0_351_602">
<rect width="1108" height="556" fill="white"/>
</clipPath>
</defs>
</svg>
