<svg width="1920" height="5332" viewBox="0 0 1920 5332" fill="none" xmlns="http://www.w3.org/2000/svg">
<g clip-path="url(#clip0_351_480)">
<rect width="1920" height="5332" fill="#372955"/>
<rect x="2038.55" y="1933.95" width="1964" height="3032.25" transform="rotate(70 2038.55 1933.95)" fill="#8062BE"/>
<rect x="2480.32" y="5217.53" width="1964.06" height="3032.16" transform="rotate(98.5831 2480.32 5217.53)" fill="#8062BE"/>
<rect x="3281.46" y="251.459" width="1964" height="3079.49" transform="rotate(130 3281.46 251.459)" fill="#8062BE"/>
<path d="M1700.4 2614.38L1699 2610.65L1697.6 2614.38L1691.24 2631.24L1674.38 2637.6L1670.65 2639L1674.38 2640.4L1691.24 2646.76L1697.6 2663.62L1699 2667.35L1700.4 2663.62L1706.76 2646.76L1723.62 2640.4L1727.35 2639L1723.62 2637.6L1706.76 2631.24L1700.4 2614.38ZM1685.89 2626.77L1686.53 2626.53L1686.77 2625.89L1699 2593.27L1711.23 2625.89L1711.47 2626.53L1712.11 2626.77L1744.73 2639L1712.11 2651.23L1711.47 2651.47L1711.23 2652.11L1699 2684.73L1686.77 2652.11L1686.53 2651.47L1685.89 2651.23L1653.27 2639L1685.89 2626.77Z" fill="#372955" stroke="#8062BE" stroke-width="3"/>
<path d="M1800.4 1070.38L1799 1066.65L1797.6 1070.38L1791.24 1087.24L1774.38 1093.6L1770.65 1095L1774.38 1096.4L1791.24 1102.76L1797.6 1119.62L1799 1123.35L1800.4 1119.62L1806.76 1102.76L1823.62 1096.4L1827.35 1095L1823.62 1093.6L1806.76 1087.24L1800.4 1070.38ZM1785.89 1082.77L1786.53 1082.53L1786.77 1081.89L1799 1049.27L1811.23 1081.89L1811.47 1082.53L1812.11 1082.77L1844.73 1095L1812.11 1107.23L1811.47 1107.47L1811.23 1108.11L1799 1140.73L1786.77 1108.11L1786.53 1107.47L1785.89 1107.23L1753.27 1095L1785.89 1082.77Z" fill="#372955" stroke="#8062BE" stroke-width="3"/>
<path d="M1601.4 308.38L1600 304.653L1598.6 308.38L1592.24 325.245L1575.38 331.596L1571.65 333L1575.38 334.404L1592.24 340.755L1598.6 357.62L1600 361.347L1601.4 357.62L1607.76 340.755L1624.62 334.404L1628.35 333L1624.62 331.596L1607.76 325.245L1601.4 308.38ZM1586.89 320.768L1587.53 320.529L1587.77 319.89L1600 287.272L1612.23 319.89L1612.47 320.529L1613.11 320.768L1645.73 333L1613.11 345.232L1612.47 345.471L1612.23 346.11L1600 378.728L1587.77 346.11L1587.53 345.471L1586.89 345.232L1554.27 333L1586.89 320.768Z" fill="#372955" stroke="#8062BE" stroke-width="3"/>
<path d="M1616.4 3069.38L1615 3065.65L1613.6 3069.38L1607.24 3086.24L1590.38 3092.6L1586.65 3094L1590.38 3095.4L1607.24 3101.76L1613.6 3118.62L1615 3122.35L1616.4 3118.62L1622.76 3101.76L1639.62 3095.4L1643.35 3094L1639.62 3092.6L1622.76 3086.24L1616.4 3069.38ZM1601.89 3081.77L1602.53 3081.53L1602.77 3080.89L1615 3048.27L1627.23 3080.89L1627.47 3081.53L1628.11 3081.77L1660.73 3094L1628.11 3106.23L1627.47 3106.47L1627.23 3107.11L1615 3139.73L1602.77 3107.11L1602.53 3106.47L1601.89 3106.23L1569.27 3094L1601.89 3081.77Z" fill="#372955" stroke="#8062BE" stroke-width="3"/>
<path d="M80.4037 2771.38L79 2767.65L77.5963 2771.38L71.2448 2788.24L54.3804 2794.6L50.6532 2796L54.3804 2797.4L71.2448 2803.76L77.5963 2820.62L79 2824.35L80.4037 2820.62L86.7552 2803.76L103.62 2797.4L107.347 2796L103.62 2794.6L86.7552 2788.24L80.4037 2771.38ZM65.8903 2783.77L66.5287 2783.53L66.7681 2782.89L79 2750.27L91.2319 2782.89L91.4713 2783.53L92.1097 2783.77L124.728 2796L92.1097 2808.23L91.4713 2808.47L91.2319 2809.11L79 2841.73L66.7681 2809.11L66.5287 2808.47L65.8903 2808.23L33.272 2796L65.8903 2783.77Z" fill="#372955" stroke="#8062BE" stroke-width="3"/>
<path d="M1842.4 3614.38L1841 3610.65L1839.6 3614.38L1833.24 3631.24L1816.38 3637.6L1812.65 3639L1816.38 3640.4L1833.24 3646.76L1839.6 3663.62L1841 3667.35L1842.4 3663.62L1848.76 3646.76L1865.62 3640.4L1869.35 3639L1865.62 3637.6L1848.76 3631.24L1842.4 3614.38ZM1827.89 3626.77L1828.53 3626.53L1828.77 3625.89L1841 3593.27L1853.23 3625.89L1853.47 3626.53L1854.11 3626.77L1886.73 3639L1854.11 3651.23L1853.47 3651.47L1853.23 3652.11L1841 3684.73L1828.77 3652.11L1828.53 3651.47L1827.89 3651.23L1795.27 3639L1827.89 3626.77Z" fill="#372955" stroke="#8062BE" stroke-width="3"/>
<path d="M180.404 3155.38L179 3151.65L177.596 3155.38L171.245 3172.24L154.38 3178.6L150.653 3180L154.38 3181.4L171.245 3187.76L177.596 3204.62L179 3208.35L180.404 3204.62L186.755 3187.76L203.62 3181.4L207.347 3180L203.62 3178.6L186.755 3172.24L180.404 3155.38ZM165.89 3167.77L166.529 3167.53L166.768 3166.89L179 3134.27L191.232 3166.89L191.471 3167.53L192.11 3167.77L224.728 3180L192.11 3192.23L191.471 3192.47L191.232 3193.11L179 3225.73L166.768 3193.11L166.529 3192.47L165.89 3192.23L133.272 3180L165.89 3167.77Z" fill="#372955" stroke="#8062BE" stroke-width="3"/>
<path d="M230.404 4082.38L229 4078.65L227.596 4082.38L221.245 4099.24L204.38 4105.6L200.653 4107L204.38 4108.4L221.245 4114.76L227.596 4131.62L229 4135.35L230.404 4131.62L236.755 4114.76L253.62 4108.4L257.347 4107L253.62 4105.6L236.755 4099.24L230.404 4082.38ZM215.89 4094.77L216.529 4094.53L216.768 4093.89L229 4061.27L241.232 4093.89L241.471 4094.53L242.11 4094.77L274.728 4107L242.11 4119.23L241.471 4119.47L241.232 4120.11L229 4152.73L216.768 4120.11L216.529 4119.47L215.89 4119.23L183.272 4107L215.89 4094.77Z" fill="#372955" stroke="#8062BE" stroke-width="3"/>
</g>
<defs>
<clipPath id="clip0_351_480">
<rect width="1920" height="5332" fill="white"/>
</clipPath>
</defs>
</svg>
