<svg width="323" height="47" viewBox="0 0 323 47" fill="none" xmlns="http://www.w3.org/2000/svg">
<path d="M100 9H50V14H100V9Z" fill="white"/>
<path d="M100 21H0V26H100V21Z" fill="white"/>
<path d="M100 33H20V38H100V33Z" fill="white"/>
<path d="M108.932 13.0341V9.90909H130.75V13.0341H121.602V39H118.08V13.0341H108.932ZM133.467 39V17.1818H136.705V20.4773H136.933C137.33 19.3977 138.05 18.5218 139.092 17.8494C140.133 17.1771 141.308 16.8409 142.614 16.8409C142.861 16.8409 143.168 16.8456 143.538 16.8551C143.907 16.8646 144.186 16.8788 144.376 16.8977V20.3068C144.262 20.2784 144.002 20.2358 143.594 20.179C143.197 20.1127 142.775 20.0795 142.33 20.0795C141.27 20.0795 140.323 20.3021 139.489 20.7472C138.665 21.1828 138.012 21.7888 137.529 22.5653C137.056 23.3324 136.819 24.2083 136.819 25.1932V39H133.467ZM162.099 30.0795V17.1818H165.452V39H162.099V35.3068H161.872C161.361 36.4148 160.565 37.357 159.486 38.1335C158.406 38.9006 157.043 39.2841 155.395 39.2841C154.031 39.2841 152.819 38.9858 151.759 38.3892C150.698 37.7831 149.865 36.8741 149.259 35.6619C148.652 34.4403 148.349 32.9015 148.349 31.0455V17.1818H151.702V30.8182C151.702 32.4091 152.147 33.678 153.037 34.625C153.937 35.572 155.082 36.0455 156.474 36.0455C157.308 36.0455 158.155 35.8324 159.017 35.4062C159.888 34.9801 160.617 34.3267 161.205 33.446C161.801 32.5653 162.099 31.4432 162.099 30.0795ZM187.046 22.0682L184.035 22.9205C183.845 22.4186 183.566 21.9309 183.197 21.4574C182.837 20.9744 182.344 20.5767 181.719 20.2642C181.094 19.9517 180.294 19.7955 179.319 19.7955C177.984 19.7955 176.871 20.1032 175.981 20.7188C175.1 21.3248 174.66 22.0966 174.66 23.0341C174.66 23.8674 174.963 24.5256 175.569 25.0085C176.175 25.4915 177.122 25.8939 178.41 26.2159L181.648 27.0114C183.599 27.4848 185.053 28.2093 186.009 29.1847C186.966 30.1506 187.444 31.3958 187.444 32.9205C187.444 34.1705 187.084 35.2879 186.364 36.2727C185.654 37.2576 184.66 38.0341 183.381 38.6023C182.103 39.1705 180.616 39.4545 178.921 39.4545C176.696 39.4545 174.854 38.9716 173.396 38.0057C171.937 37.0398 171.014 35.6288 170.626 33.7727L173.808 32.9773C174.111 34.1515 174.683 35.0322 175.526 35.6193C176.379 36.2064 177.491 36.5 178.864 36.5C180.427 36.5 181.667 36.1686 182.586 35.5057C183.514 34.8333 183.978 34.0284 183.978 33.0909C183.978 32.3333 183.713 31.6989 183.183 31.1875C182.652 30.6667 181.838 30.2784 180.739 30.0227L177.103 29.1705C175.105 28.697 173.637 27.9631 172.7 26.9688C171.772 25.965 171.308 24.7102 171.308 23.2045C171.308 21.9735 171.653 20.8845 172.344 19.9375C173.045 18.9905 173.997 18.2472 175.2 17.7074C176.412 17.1676 177.785 16.8977 179.319 16.8977C181.478 16.8977 183.173 17.3712 184.404 18.3182C185.645 19.2652 186.525 20.5152 187.046 22.0682ZM201.979 17.1818V20.0227H190.672V17.1818H201.979ZM193.967 11.9545H197.32V32.75C197.32 33.697 197.457 34.4072 197.732 34.8807C198.016 35.3447 198.375 35.6572 198.811 35.8182C199.256 35.9697 199.725 36.0455 200.217 36.0455C200.587 36.0455 200.89 36.0265 201.126 35.9886C201.363 35.9413 201.553 35.9034 201.695 35.875L202.376 38.8864C202.149 38.9716 201.832 39.0568 201.425 39.142C201.018 39.2367 200.501 39.2841 199.876 39.2841C198.929 39.2841 198.001 39.0805 197.092 38.6733C196.193 38.2661 195.445 37.6458 194.848 36.8125C194.261 35.9792 193.967 34.928 193.967 33.6591V11.9545ZM241.794 9.90909V39H238.385L222.533 16.1591H222.249V39H218.726V9.90909H222.135L238.044 32.8068H238.328V9.90909H241.794ZM257.536 39.4545C255.434 39.4545 253.621 38.9905 252.096 38.0625C250.581 37.125 249.411 35.8182 248.587 34.142C247.773 32.4564 247.366 30.4962 247.366 28.2614C247.366 26.0265 247.773 24.0568 248.587 22.3523C249.411 20.6383 250.557 19.303 252.025 18.3466C253.502 17.3807 255.226 16.8977 257.195 16.8977C258.332 16.8977 259.454 17.0871 260.562 17.4659C261.67 17.8447 262.678 18.4602 263.587 19.3125C264.496 20.1553 265.221 21.2727 265.761 22.6648C266.3 24.0568 266.57 25.7708 266.57 27.8068V29.2273H249.752V26.3295H263.161C263.161 25.0985 262.915 24 262.423 23.0341C261.94 22.0682 261.248 21.3059 260.349 20.7472C259.459 20.1884 258.407 19.9091 257.195 19.9091C255.86 19.9091 254.705 20.2405 253.729 20.9034C252.763 21.5568 252.02 22.4091 251.499 23.4602C250.978 24.5114 250.718 25.6383 250.718 26.8409V28.7727C250.718 30.4205 251.002 31.8172 251.57 32.9631C252.148 34.0994 252.948 34.9659 253.971 35.5625C254.994 36.1496 256.182 36.4432 257.536 36.4432C258.417 36.4432 259.212 36.3201 259.923 36.0739C260.642 35.8182 261.263 35.4394 261.783 34.9375C262.304 34.4261 262.707 33.7917 262.991 33.0341L266.229 33.9432C265.888 35.0417 265.316 36.0076 264.511 36.8409C263.706 37.6648 262.711 38.3087 261.528 38.7727C260.344 39.2273 259.013 39.4545 257.536 39.4545ZM276.613 39L269.965 17.1818H273.488L278.204 33.8864H278.431L283.09 17.1818H286.67L291.272 33.8295H291.499L296.215 17.1818H299.738L293.09 39H289.795L285.022 22.2386H284.681L279.908 39H276.613ZM319.624 22.0682L316.613 22.9205C316.424 22.4186 316.144 21.9309 315.775 21.4574C315.415 20.9744 314.923 20.5767 314.298 20.2642C313.673 19.9517 312.872 19.7955 311.897 19.7955C310.562 19.7955 309.449 20.1032 308.559 20.7188C307.678 21.3248 307.238 22.0966 307.238 23.0341C307.238 23.8674 307.541 24.5256 308.147 25.0085C308.753 25.4915 309.7 25.8939 310.988 26.2159L314.227 27.0114C316.177 27.4848 317.631 28.2093 318.587 29.1847C319.544 30.1506 320.022 31.3958 320.022 32.9205C320.022 34.1705 319.662 35.2879 318.942 36.2727C318.232 37.2576 317.238 38.0341 315.96 38.6023C314.681 39.1705 313.194 39.4545 311.499 39.4545C309.274 39.4545 307.432 38.9716 305.974 38.0057C304.515 37.0398 303.592 35.6288 303.204 33.7727L306.386 32.9773C306.689 34.1515 307.262 35.0322 308.104 35.6193C308.957 36.2064 310.069 36.5 311.442 36.5C313.005 36.5 314.246 36.1686 315.164 35.5057C316.092 34.8333 316.556 34.0284 316.556 33.0909C316.556 32.3333 316.291 31.6989 315.761 31.1875C315.23 30.6667 314.416 30.2784 313.317 30.0227L309.681 29.1705C307.683 28.697 306.215 27.9631 305.278 26.9688C304.35 25.965 303.886 24.7102 303.886 23.2045C303.886 21.9735 304.231 20.8845 304.923 19.9375C305.623 18.9905 306.575 18.2472 307.778 17.7074C308.99 17.1676 310.363 16.8977 311.897 16.8977C314.056 16.8977 315.751 17.3712 316.982 18.3182C318.223 19.2652 319.103 20.5152 319.624 22.0682Z" fill="white"/>
<path d="M244.591 9.90909H245.091V9.40909H244.591V9.90909ZM244.591 39V39.5H245.091V39H244.591ZM241.182 39L240.771 39.2851L240.92 39.5H241.182V39ZM225.33 16.1591L225.74 15.874L225.591 15.6591H225.33V16.1591ZM225.045 16.1591V15.6591H224.545V16.1591H225.045ZM225.045 39V39.5H225.545V39H225.045ZM221.523 39H221.023V39.5H221.523V39ZM221.523 9.90909V9.40909H221.023V9.90909H221.523ZM224.932 9.90909L225.342 9.6238L225.193 9.40909H224.932V9.90909ZM240.841 32.8068L240.43 33.0921L240.579 33.3068H240.841V32.8068ZM241.125 32.8068V33.3068H241.625V32.8068H241.125ZM241.125 9.90909V9.40909H240.625V9.90909H241.125ZM244.091 9.90909V39H245.091V9.90909H244.091ZM244.591 38.5H241.182V39.5H244.591V38.5ZM241.593 38.7149L225.74 15.874L224.919 16.4442L240.771 39.2851L241.593 38.7149ZM225.33 15.6591H225.045V16.6591H225.33V15.6591ZM224.545 16.1591V39H225.545V16.1591H224.545ZM225.045 38.5H221.523V39.5H225.045V38.5ZM222.023 39V9.90909H221.023V39H222.023ZM221.523 10.4091H224.932V9.40909H221.523V10.4091ZM224.521 10.1944L240.43 33.0921L241.252 32.5215L225.342 9.6238L224.521 10.1944ZM240.841 33.3068H241.125V32.3068H240.841V33.3068ZM241.625 32.8068V9.90909H240.625V32.8068H241.625ZM241.125 10.4091H244.591V9.40909H241.125V10.4091ZM254.893 38.0625L254.63 38.4877L254.633 38.4896L254.893 38.0625ZM251.384 34.142L250.934 34.3596L250.936 34.3626L251.384 34.142ZM251.384 22.3523L250.934 22.1357L250.933 22.1367L251.384 22.3523ZM254.822 18.3466L255.095 18.7655L255.095 18.7651L254.822 18.3466ZM263.359 17.4659L263.52 16.9928L263.359 17.4659ZM266.384 19.3125L266.042 19.6773L266.044 19.6792L266.384 19.3125ZM268.558 22.6648L269.024 22.484L268.558 22.6648ZM269.367 29.2273V29.7273H269.867V29.2273H269.367ZM252.549 29.2273H252.049V29.7273H252.549V29.2273ZM252.549 26.3295V25.8295H252.049V26.3295H252.549ZM265.958 26.3295V26.8295H266.458V26.3295H265.958ZM265.219 23.0341L264.772 23.2577L264.774 23.2612L265.219 23.0341ZM263.146 20.7472L262.88 21.1707L262.882 21.1719L263.146 20.7472ZM256.526 20.9034L256.806 21.3176L256.807 21.3169L256.526 20.9034ZM254.296 23.4602L253.848 23.2382L254.296 23.4602ZM254.367 32.9631L253.919 33.1852L253.921 33.1896L254.367 32.9631ZM256.768 35.5625L256.516 35.9944L256.519 35.9961L256.768 35.5625ZM262.719 36.0739L262.883 36.5463L262.887 36.545L262.719 36.0739ZM264.58 34.9375L264.927 35.2976L264.931 35.2943L264.58 34.9375ZM265.788 33.0341L265.923 32.5527L265.481 32.4286L265.319 32.8585L265.788 33.0341ZM269.026 33.9432L269.504 34.0914L269.656 33.6007L269.161 33.4618L269.026 33.9432ZM267.308 36.8409L267.665 37.1903L267.667 37.1883L267.308 36.8409ZM264.325 38.7727L264.504 39.2395L264.507 39.2382L264.325 38.7727ZM260.333 38.9545C258.306 38.9545 256.586 38.5078 255.153 37.6354L254.633 38.4896C256.249 39.4732 258.156 39.9545 260.333 39.9545V38.9545ZM255.156 37.6373C253.725 36.7517 252.617 35.5176 251.833 33.9215L250.936 34.3626C251.799 36.1188 253.031 37.4983 254.63 38.4877L255.156 37.6373ZM251.834 33.9245C251.059 32.3187 250.663 30.4353 250.663 28.2614H249.663C249.663 30.5571 250.081 32.5942 250.934 34.3596L251.834 33.9245ZM250.663 28.2614C250.663 26.0876 251.059 24.1938 251.835 22.5678L250.933 22.1367C250.081 23.9198 249.663 25.9655 249.663 28.2614H250.663ZM251.835 22.5689C252.623 20.93 253.71 19.6678 255.095 18.7655L254.549 17.9277C252.998 18.9383 251.794 20.3465 250.934 22.1357L251.835 22.5689ZM255.095 18.7651C256.482 17.8584 258.108 17.3977 259.992 17.3977V16.3977C257.937 16.3977 256.116 16.903 254.548 17.9281L255.095 18.7651ZM259.992 17.3977C261.072 17.3977 262.139 17.5775 263.197 17.939L263.52 16.9928C262.362 16.5968 261.185 16.3977 259.992 16.3977V17.3977ZM263.197 17.939C264.234 18.2934 265.182 18.8703 266.042 19.6773L266.726 18.9477C265.769 18.0501 264.7 17.396 263.52 16.9928L263.197 17.939ZM266.044 19.6792C266.888 20.4609 267.573 21.51 268.091 22.8455L269.024 22.484C268.462 21.0355 267.699 19.8497 266.724 18.9458L266.044 19.6792ZM268.091 22.8455C268.602 24.1631 268.867 25.8116 268.867 27.8068H269.867C269.867 25.73 269.592 23.9505 269.024 22.484L268.091 22.8455ZM268.867 27.8068V29.2273H269.867V27.8068H268.867ZM269.367 28.7273H252.549V29.7273H269.367V28.7273ZM253.049 29.2273V26.3295H252.049V29.2273H253.049ZM252.549 26.8295H265.958V25.8295H252.549V26.8295ZM266.458 26.3295C266.458 25.0303 266.198 23.8522 265.665 22.807L264.774 23.2612C265.226 24.1478 265.458 25.1666 265.458 26.3295H266.458ZM265.667 22.8105C265.143 21.7636 264.389 20.9309 263.409 20.3224L262.882 21.1719C263.701 21.6808 264.33 22.3728 264.772 23.2577L265.667 22.8105ZM263.411 20.3237C262.43 19.7077 261.284 19.4091 259.992 19.4091V20.4091C261.125 20.4091 262.081 20.6692 262.88 21.1707L263.411 20.3237ZM259.992 19.4091C258.57 19.4091 257.314 19.7634 256.245 20.4899L256.807 21.3169C257.689 20.7177 258.743 20.4091 259.992 20.4091V19.4091ZM256.246 20.4893C255.208 21.1914 254.407 22.1101 253.848 23.2382L254.744 23.6822C255.227 22.7081 255.913 21.9222 256.806 21.3176L256.246 20.4893ZM253.848 23.2382C253.292 24.3602 253.015 25.5633 253.015 26.8409H254.015C254.015 25.7133 254.258 24.6626 254.744 23.6822L253.848 23.2382ZM253.015 26.8409V28.7727H254.015V26.8409H253.015ZM253.015 28.7727C253.015 30.476 253.308 31.9534 253.919 33.1852L254.815 32.7409C254.29 31.6811 254.015 30.3649 254.015 28.7727H253.015ZM253.921 33.1896C254.539 34.4048 255.404 35.3457 256.516 35.9944L257.02 35.1306C256.086 34.5862 255.351 33.7941 254.813 32.7365L253.921 33.1896ZM256.519 35.9961C257.628 36.6328 258.905 36.9432 260.333 36.9432V35.9432C259.053 35.9432 257.953 35.6664 257.017 35.1289L256.519 35.9961ZM260.333 36.9432C261.26 36.9432 262.112 36.8136 262.883 36.5463L262.556 35.6014C261.906 35.8266 261.167 35.9432 260.333 35.9432V36.9432ZM262.887 36.545C263.67 36.2669 264.352 35.8516 264.927 35.2975L264.233 34.5775C263.767 35.0272 263.209 35.3695 262.552 35.6027L262.887 36.545ZM264.931 35.2943C265.509 34.7265 265.949 34.028 266.256 33.2097L265.319 32.8585C265.058 33.5553 264.693 34.1258 264.23 34.5807L264.931 35.2943ZM265.653 33.5155L268.891 34.4246L269.161 33.4618L265.923 32.5527L265.653 33.5155ZM268.549 33.795C268.231 34.8182 267.699 35.716 266.948 36.4935L267.667 37.1883C268.526 36.2991 269.14 35.2651 269.504 34.0914L268.549 33.795ZM266.95 36.4915C266.199 37.2596 265.267 37.8663 264.142 38.3072L264.507 39.2382C265.75 38.7511 266.806 38.0699 267.665 37.1903L266.95 36.4915ZM264.145 38.306C263.027 38.7352 261.759 38.9545 260.333 38.9545V39.9545C261.862 39.9545 263.254 39.7193 264.504 39.2395L264.145 38.306ZM279.41 39L278.932 39.1457L279.039 39.5H279.41V39ZM272.762 17.1818V16.6818H272.087L272.284 17.3275L272.762 17.1818ZM276.285 17.1818L276.766 17.046L276.663 16.6818H276.285V17.1818ZM281.001 33.8864L280.52 34.0222L280.622 34.3864H281.001V33.8864ZM281.228 33.8864V34.3864H281.608L281.71 34.0207L281.228 33.8864ZM285.887 17.1818V16.6818H285.507L285.405 17.0475L285.887 17.1818ZM289.467 17.1818L289.949 17.0486L289.847 16.6818H289.467V17.1818ZM294.069 33.8295L293.587 33.9628L293.688 34.3295H294.069V33.8295ZM294.296 33.8295V34.3295H294.674L294.777 33.9658L294.296 33.8295ZM299.012 17.1818V16.6818H298.634L298.531 17.0455L299.012 17.1818ZM302.535 17.1818L303.013 17.3275L303.21 16.6818H302.535V17.1818ZM295.887 39V39.5H296.257L296.365 39.1457L295.887 39ZM292.592 39L292.111 39.1369L292.214 39.5H292.592V39ZM287.819 22.2386L288.3 22.1017L288.196 21.7386H287.819V22.2386ZM287.478 22.2386V21.7386H287.1L286.997 22.1017L287.478 22.2386ZM282.705 39V39.5H283.083L283.186 39.1369L282.705 39ZM279.888 38.8543L273.24 17.0361L272.284 17.3275L278.932 39.1457L279.888 38.8543ZM272.762 17.6818H276.285V16.6818H272.762V17.6818ZM275.804 17.3177L280.52 34.0222L281.482 33.7505L276.766 17.046L275.804 17.3177ZM281.001 34.3864H281.228V33.3864H281.001V34.3864ZM281.71 34.0207L286.369 17.3161L285.405 17.0475L280.746 33.752L281.71 34.0207ZM285.887 17.6818H289.467V16.6818H285.887V17.6818ZM288.985 17.315L293.587 33.9628L294.551 33.6963L289.949 17.0486L288.985 17.315ZM294.069 34.3295H294.296V33.3295H294.069V34.3295ZM294.777 33.9658L299.493 17.3181L298.531 17.0455L293.815 33.6933L294.777 33.9658ZM299.012 17.6818H302.535V16.6818H299.012V17.6818ZM302.057 17.0361L295.409 38.8543L296.365 39.1457L303.013 17.3275L302.057 17.0361ZM295.887 38.5H292.592V39.5H295.887V38.5ZM293.073 38.8631L288.3 22.1017L287.338 22.3756L292.111 39.1369L293.073 38.8631ZM287.819 21.7386H287.478V22.7386H287.819V21.7386ZM286.997 22.1017L282.224 38.8631L283.186 39.1369L287.959 22.3756L286.997 22.1017ZM282.705 38.5H279.41V39.5H282.705V38.5ZM322.421 22.0682L322.557 22.5493L323.062 22.4065L322.895 21.9092L322.421 22.0682ZM319.41 22.9205L318.942 23.097L319.104 23.5266L319.546 23.4016L319.41 22.9205ZM318.572 21.4574L318.171 21.7562L318.177 21.7649L318.572 21.4574ZM317.094 20.2642L317.318 19.817L317.094 20.2642ZM311.356 20.7188L311.639 21.1306L311.64 21.13L311.356 20.7188ZM310.944 25.0085L310.632 25.3996V25.3996L310.944 25.0085ZM313.785 26.2159L313.664 26.701L313.666 26.7015L313.785 26.2159ZM317.023 27.0114L316.904 27.4969L316.906 27.4973L317.023 27.0114ZM321.384 29.1847L321.027 29.5347L321.029 29.5365L321.384 29.1847ZM321.739 36.2727L321.336 35.9777L321.334 35.9803L321.739 36.2727ZM308.771 38.0057L309.047 37.5888L308.771 38.0057ZM306.001 33.7727L305.879 33.2877L305.413 33.4043L305.511 33.8751L306.001 33.7727ZM309.183 32.9773L309.667 32.8523L309.543 32.3718L309.061 32.4922L309.183 32.9773ZM310.901 35.6193L310.615 36.0296L310.618 36.0311L310.901 35.6193ZM317.961 35.5057L318.254 35.9111L318.254 35.9106L317.961 35.5057ZM318.558 31.1875L318.207 31.5442L318.21 31.5474L318.558 31.1875ZM316.114 30.0227L316 30.5095L316.001 30.5097L316.114 30.0227ZM312.478 29.1705L312.363 29.657L312.364 29.6573L312.478 29.1705ZM308.075 26.9688L307.707 27.3082L307.711 27.3118L308.075 26.9688ZM307.719 19.9375L307.318 19.6401L307.316 19.6427L307.719 19.9375ZM310.575 17.7074L310.371 17.2506L310.37 17.2512L310.575 17.7074ZM319.779 18.3182L319.474 18.7145L319.476 18.7156L319.779 18.3182ZM322.285 21.5871L319.274 22.4394L319.546 23.4016L322.557 22.5493L322.285 21.5871ZM319.878 22.7439C319.668 22.1897 319.363 21.6584 318.966 21.1499L318.177 21.7649C318.519 22.2034 318.772 22.6475 318.942 23.097L319.878 22.7439ZM318.973 21.1586C318.559 20.6037 318.002 20.1588 317.318 19.817L316.871 20.7114C317.437 20.9946 317.865 21.3452 318.171 21.7561L318.973 21.1586ZM317.318 19.817C316.602 19.4588 315.718 19.2955 314.694 19.2955V20.2955C315.621 20.2955 316.337 20.4446 316.871 20.7114L317.318 19.817ZM314.694 19.2955C313.281 19.2955 312.063 19.6219 311.071 20.3075L311.64 21.13C312.429 20.5845 313.436 20.2955 314.694 20.2955V19.2955ZM311.072 20.3069C310.078 20.991 309.535 21.9069 309.535 23.0341H310.535C310.535 22.2863 310.872 21.6586 311.639 21.1306L311.072 20.3069ZM309.535 23.0341C309.535 24.0065 309.897 24.8138 310.632 25.3996L311.255 24.6175C310.778 24.2373 310.535 23.7284 310.535 23.0341H309.535ZM310.632 25.3996C311.321 25.9482 312.349 26.3723 313.664 26.701L313.906 25.7308C312.645 25.4156 311.779 25.0348 311.255 24.6175L310.632 25.3996ZM313.666 26.7015L316.904 27.4969L317.143 26.5258L313.904 25.7303L313.666 26.7015ZM316.906 27.4973C318.805 27.9584 320.16 28.6504 321.027 29.5347L321.741 28.8346C320.696 27.7682 319.143 27.0113 317.141 26.5255L316.906 27.4973ZM321.029 29.5365C321.881 30.397 322.319 31.5101 322.319 32.9205H323.319C323.319 31.2816 322.8 29.9041 321.74 28.8329L321.029 29.5365ZM322.319 32.9205C322.319 34.0672 321.991 35.0807 321.336 35.9777L322.143 36.5677C322.927 35.495 323.319 34.2737 323.319 32.9205H322.319ZM321.334 35.9803C320.683 36.883 319.763 37.6076 318.553 38.1454L318.959 39.0592C320.306 38.4606 321.375 37.6321 322.145 36.5652L321.334 35.9803ZM318.553 38.1454C317.351 38.6798 315.936 38.9545 314.296 38.9545V39.9545C316.047 39.9545 317.605 39.6611 318.959 39.0592L318.553 38.1454ZM314.296 38.9545C312.142 38.9545 310.403 38.4875 309.047 37.5888L308.494 38.4225C310.054 39.4557 311.999 39.9545 314.296 39.9545V38.9545ZM309.047 37.5888C307.708 36.702 306.854 35.4095 306.49 33.6703L305.511 33.8751C305.924 35.8481 306.917 37.3775 308.494 38.4225L309.047 37.5888ZM306.122 34.2578L309.304 33.4623L309.061 32.4922L305.879 33.2877L306.122 34.2578ZM308.698 33.1022C309.026 34.3702 309.657 35.3622 310.615 36.0296L311.187 35.2091C310.46 34.7022 309.946 33.9328 309.667 32.8523L308.698 33.1022ZM310.618 36.0311C311.577 36.6917 312.798 37 314.239 37V36C312.935 36 311.93 35.7211 311.185 35.2076L310.618 36.0311ZM314.239 37C315.868 37 317.223 36.6549 318.254 35.9111L317.668 35.1002C316.862 35.6822 315.736 36 314.239 36V37ZM318.254 35.9106C319.28 35.1677 319.853 34.225 319.853 33.0909H318.853C318.853 33.8319 318.498 34.499 317.668 35.1008L318.254 35.9106ZM319.853 33.0909C319.853 32.2019 319.536 31.4361 318.905 30.8276L318.21 31.5474C318.64 31.9616 318.853 32.4648 318.853 33.0909H319.853ZM318.908 30.8308C318.286 30.2205 317.373 29.8023 316.228 29.5357L316.001 30.5097C317.053 30.7545 317.768 31.1129 318.207 31.5442L318.908 30.8308ZM316.228 29.5359L312.592 28.6836L312.364 29.6573L316 30.5095L316.228 29.5359ZM312.593 28.6839C310.646 28.2224 309.283 27.5216 308.438 26.6257L307.711 27.3118C308.741 28.4045 310.314 29.1716 312.363 29.657L312.593 28.6839ZM308.442 26.6293C307.608 25.7276 307.183 24.5982 307.183 23.2045H306.183C306.183 24.8222 306.685 26.2023 307.707 27.3082L308.442 26.6293ZM307.183 23.2045C307.183 22.0738 307.498 21.0892 308.123 20.2323L307.316 19.6427C306.559 20.6797 306.183 21.8732 306.183 23.2045H307.183ZM308.121 20.2349C308.765 19.3648 309.645 18.6725 310.779 18.1635L310.37 17.2512C309.098 17.8219 308.075 18.6162 307.318 19.6401L308.121 20.2349ZM310.778 18.1641C311.917 17.657 313.219 17.3977 314.694 17.3977V16.3977C313.101 16.3977 311.657 16.6782 310.371 17.2506L310.778 18.1641ZM314.694 17.3977C316.785 17.3977 318.359 17.8566 319.474 18.7145L320.084 17.9219C318.737 16.8858 316.921 16.3977 314.694 16.3977V17.3977ZM319.476 18.7156C320.633 19.5988 321.456 20.7639 321.947 22.2272L322.895 21.9092C322.344 20.2664 321.407 18.9315 320.083 17.9207L319.476 18.7156Z" fill="white"/>
</svg>
