<svg width="320" height="47" viewBox="0 0 320 47" fill="none" xmlns="http://www.w3.org/2000/svg">
<path d="M100 9H50V14H100V9Z" fill="white"/>
<path d="M100 21H0V26H100V21Z" fill="white"/>
<path d="M100 33H20V38H100V33Z" fill="white"/>
<path d="M105.932 13.0341V9.90909H127.75V13.0341H118.602V39H115.08V13.0341H105.932ZM130.467 39V17.1818H133.705V20.4773H133.933C134.33 19.3977 135.05 18.5218 136.092 17.8494C137.133 17.1771 138.308 16.8409 139.614 16.8409C139.861 16.8409 140.168 16.8456 140.538 16.8551C140.907 16.8646 141.186 16.8788 141.376 16.8977V20.3068C141.262 20.2784 141.002 20.2358 140.594 20.179C140.197 20.1127 139.775 20.0795 139.33 20.0795C138.27 20.0795 137.323 20.3021 136.489 20.7472C135.665 21.1828 135.012 21.7888 134.529 22.5653C134.056 23.3324 133.819 24.2083 133.819 25.1932V39H130.467ZM159.099 30.0795V17.1818H162.452V39H159.099V35.3068H158.872C158.361 36.4148 157.565 37.357 156.486 38.1335C155.406 38.9006 154.043 39.2841 152.395 39.2841C151.031 39.2841 149.819 38.9858 148.759 38.3892C147.698 37.7831 146.865 36.8741 146.259 35.6619C145.652 34.4403 145.349 32.9015 145.349 31.0455V17.1818H148.702V30.8182C148.702 32.4091 149.147 33.678 150.037 34.625C150.937 35.572 152.082 36.0455 153.474 36.0455C154.308 36.0455 155.155 35.8324 156.017 35.4062C156.888 34.9801 157.617 34.3267 158.205 33.446C158.801 32.5653 159.099 31.4432 159.099 30.0795ZM184.046 22.0682L181.035 22.9205C180.845 22.4186 180.566 21.9309 180.197 21.4574C179.837 20.9744 179.344 20.5767 178.719 20.2642C178.094 19.9517 177.294 19.7955 176.319 19.7955C174.984 19.7955 173.871 20.1032 172.981 20.7188C172.1 21.3248 171.66 22.0966 171.66 23.0341C171.66 23.8674 171.963 24.5256 172.569 25.0085C173.175 25.4915 174.122 25.8939 175.41 26.2159L178.648 27.0114C180.599 27.4848 182.053 28.2093 183.009 29.1847C183.966 30.1506 184.444 31.3958 184.444 32.9205C184.444 34.1705 184.084 35.2879 183.364 36.2727C182.654 37.2576 181.66 38.0341 180.381 38.6023C179.103 39.1705 177.616 39.4545 175.921 39.4545C173.696 39.4545 171.854 38.9716 170.396 38.0057C168.937 37.0398 168.014 35.6288 167.626 33.7727L170.808 32.9773C171.111 34.1515 171.683 35.0322 172.526 35.6193C173.379 36.2064 174.491 36.5 175.864 36.5C177.427 36.5 178.667 36.1686 179.586 35.5057C180.514 34.8333 180.978 34.0284 180.978 33.0909C180.978 32.3333 180.713 31.6989 180.183 31.1875C179.652 30.6667 178.838 30.2784 177.739 30.0227L174.103 29.1705C172.105 28.697 170.637 27.9631 169.7 26.9688C168.772 25.965 168.308 24.7102 168.308 23.2045C168.308 21.9735 168.653 20.8845 169.344 19.9375C170.045 18.9905 170.997 18.2472 172.2 17.7074C173.412 17.1676 174.785 16.8977 176.319 16.8977C178.478 16.8977 180.173 17.3712 181.404 18.3182C182.645 19.2652 183.525 20.5152 184.046 22.0682ZM198.979 17.1818V20.0227H187.672V17.1818H198.979ZM190.967 11.9545H194.32V32.75C194.32 33.697 194.457 34.4072 194.732 34.8807C195.016 35.3447 195.375 35.6572 195.811 35.8182C196.256 35.9697 196.725 36.0455 197.217 36.0455C197.587 36.0455 197.89 36.0265 198.126 35.9886C198.363 35.9413 198.553 35.9034 198.695 35.875L199.376 38.8864C199.149 38.9716 198.832 39.0568 198.425 39.142C198.018 39.2367 197.501 39.2841 196.876 39.2841C195.929 39.2841 195.001 39.0805 194.092 38.6733C193.193 38.2661 192.445 37.6458 191.848 36.8125C191.261 35.9792 190.967 34.928 190.967 33.6591V11.9545ZM238.794 9.90909V39H235.385L219.533 16.1591H219.249V39H215.726V9.90909H219.135L235.044 32.8068H235.328V9.90909H238.794ZM254.536 39.4545C252.434 39.4545 250.621 38.9905 249.096 38.0625C247.581 37.125 246.411 35.8182 245.587 34.142C244.773 32.4564 244.366 30.4962 244.366 28.2614C244.366 26.0265 244.773 24.0568 245.587 22.3523C246.411 20.6383 247.557 19.303 249.025 18.3466C250.502 17.3807 252.226 16.8977 254.195 16.8977C255.332 16.8977 256.454 17.0871 257.562 17.4659C258.67 17.8447 259.678 18.4602 260.587 19.3125C261.496 20.1553 262.221 21.2727 262.761 22.6648C263.3 24.0568 263.57 25.7708 263.57 27.8068V29.2273H246.752V26.3295H260.161C260.161 25.0985 259.915 24 259.423 23.0341C258.94 22.0682 258.248 21.3059 257.349 20.7472C256.459 20.1884 255.407 19.9091 254.195 19.9091C252.86 19.9091 251.705 20.2405 250.729 20.9034C249.763 21.5568 249.02 22.4091 248.499 23.4602C247.978 24.5114 247.718 25.6383 247.718 26.8409V28.7727C247.718 30.4205 248.002 31.8172 248.57 32.9631C249.148 34.0994 249.948 34.9659 250.971 35.5625C251.994 36.1496 253.182 36.4432 254.536 36.4432C255.417 36.4432 256.212 36.3201 256.923 36.0739C257.642 35.8182 258.263 35.4394 258.783 34.9375C259.304 34.4261 259.707 33.7917 259.991 33.0341L263.229 33.9432C262.888 35.0417 262.316 36.0076 261.511 36.8409C260.706 37.6648 259.711 38.3087 258.528 38.7727C257.344 39.2273 256.013 39.4545 254.536 39.4545ZM273.613 39L266.965 17.1818H270.488L275.204 33.8864H275.431L280.09 17.1818H283.67L288.272 33.8295H288.499L293.215 17.1818H296.738L290.09 39H286.795L282.022 22.2386H281.681L276.908 39H273.613ZM316.624 22.0682L313.613 22.9205C313.424 22.4186 313.144 21.9309 312.775 21.4574C312.415 20.9744 311.923 20.5767 311.298 20.2642C310.673 19.9517 309.872 19.7955 308.897 19.7955C307.562 19.7955 306.449 20.1032 305.559 20.7188C304.678 21.3248 304.238 22.0966 304.238 23.0341C304.238 23.8674 304.541 24.5256 305.147 25.0085C305.753 25.4915 306.7 25.8939 307.988 26.2159L311.227 27.0114C313.177 27.4848 314.631 28.2093 315.587 29.1847C316.544 30.1506 317.022 31.3958 317.022 32.9205C317.022 34.1705 316.662 35.2879 315.942 36.2727C315.232 37.2576 314.238 38.0341 312.96 38.6023C311.681 39.1705 310.194 39.4545 308.499 39.4545C306.274 39.4545 304.432 38.9716 302.974 38.0057C301.515 37.0398 300.592 35.6288 300.204 33.7727L303.386 32.9773C303.689 34.1515 304.262 35.0322 305.104 35.6193C305.957 36.2064 307.069 36.5 308.442 36.5C310.005 36.5 311.246 36.1686 312.164 35.5057C313.092 34.8333 313.556 34.0284 313.556 33.0909C313.556 32.3333 313.291 31.6989 312.761 31.1875C312.23 30.6667 311.416 30.2784 310.317 30.0227L306.681 29.1705C304.683 28.697 303.215 27.9631 302.278 26.9688C301.35 25.965 300.886 24.7102 300.886 23.2045C300.886 21.9735 301.231 20.8845 301.923 19.9375C302.623 18.9905 303.575 18.2472 304.778 17.7074C305.99 17.1676 307.363 16.8977 308.897 16.8977C311.056 16.8977 312.751 17.3712 313.982 18.3182C315.223 19.2652 316.103 20.5152 316.624 22.0682Z" fill="white"/>
<path d="M241.591 9.90909H242.091V9.40909H241.591V9.90909ZM241.591 39V39.5H242.091V39H241.591ZM238.182 39L237.771 39.2851L237.92 39.5H238.182V39ZM222.33 16.1591L222.74 15.874L222.591 15.6591H222.33V16.1591ZM222.045 16.1591V15.6591H221.545V16.1591H222.045ZM222.045 39V39.5H222.545V39H222.045ZM218.523 39H218.023V39.5H218.523V39ZM218.523 9.90909V9.40909H218.023V9.90909H218.523ZM221.932 9.90909L222.342 9.6238L222.193 9.40909H221.932V9.90909ZM237.841 32.8068L237.43 33.0921L237.579 33.3068H237.841V32.8068ZM238.125 32.8068V33.3068H238.625V32.8068H238.125ZM238.125 9.90909V9.40909H237.625V9.90909H238.125ZM241.091 9.90909V39H242.091V9.90909H241.091ZM241.591 38.5H238.182V39.5H241.591V38.5ZM238.593 38.7149L222.74 15.874L221.919 16.4442L237.771 39.2851L238.593 38.7149ZM222.33 15.6591H222.045V16.6591H222.33V15.6591ZM221.545 16.1591V39H222.545V16.1591H221.545ZM222.045 38.5H218.523V39.5H222.045V38.5ZM219.023 39V9.90909H218.023V39H219.023ZM218.523 10.4091H221.932V9.40909H218.523V10.4091ZM221.521 10.1944L237.43 33.0921L238.252 32.5215L222.342 9.6238L221.521 10.1944ZM237.841 33.3068H238.125V32.3068H237.841V33.3068ZM238.625 32.8068V9.90909H237.625V32.8068H238.625ZM238.125 10.4091H241.591V9.40909H238.125V10.4091ZM251.893 38.0625L251.63 38.4877L251.633 38.4896L251.893 38.0625ZM248.384 34.142L247.934 34.3596L247.936 34.3626L248.384 34.142ZM248.384 22.3523L247.934 22.1357L247.933 22.1367L248.384 22.3523ZM251.822 18.3466L252.095 18.7655L252.095 18.7651L251.822 18.3466ZM260.359 17.4659L260.52 16.9928L260.359 17.4659ZM263.384 19.3125L263.042 19.6773L263.044 19.6792L263.384 19.3125ZM265.558 22.6648L266.024 22.484L265.558 22.6648ZM266.367 29.2273V29.7273H266.867V29.2273H266.367ZM249.549 29.2273H249.049V29.7273H249.549V29.2273ZM249.549 26.3295V25.8295H249.049V26.3295H249.549ZM262.958 26.3295V26.8295H263.458V26.3295H262.958ZM262.219 23.0341L261.772 23.2577L261.774 23.2612L262.219 23.0341ZM260.146 20.7472L259.88 21.1707L259.882 21.1719L260.146 20.7472ZM253.526 20.9034L253.806 21.3176L253.807 21.3169L253.526 20.9034ZM251.296 23.4602L250.848 23.2382L251.296 23.4602ZM251.367 32.9631L250.919 33.1852L250.921 33.1896L251.367 32.9631ZM253.768 35.5625L253.516 35.9944L253.519 35.9961L253.768 35.5625ZM259.719 36.0739L259.883 36.5463L259.887 36.545L259.719 36.0739ZM261.58 34.9375L261.927 35.2976L261.931 35.2943L261.58 34.9375ZM262.788 33.0341L262.923 32.5527L262.481 32.4286L262.319 32.8585L262.788 33.0341ZM266.026 33.9432L266.504 34.0914L266.656 33.6007L266.161 33.4618L266.026 33.9432ZM264.308 36.8409L264.665 37.1903L264.667 37.1883L264.308 36.8409ZM261.325 38.7727L261.504 39.2395L261.507 39.2382L261.325 38.7727ZM257.333 38.9545C255.306 38.9545 253.586 38.5078 252.153 37.6354L251.633 38.4896C253.249 39.4732 255.156 39.9545 257.333 39.9545V38.9545ZM252.156 37.6373C250.725 36.7517 249.617 35.5176 248.833 33.9215L247.936 34.3626C248.799 36.1188 250.031 37.4983 251.63 38.4877L252.156 37.6373ZM248.834 33.9245C248.059 32.3187 247.663 30.4353 247.663 28.2614H246.663C246.663 30.5571 247.081 32.5942 247.934 34.3596L248.834 33.9245ZM247.663 28.2614C247.663 26.0876 248.059 24.1938 248.835 22.5678L247.933 22.1367C247.081 23.9198 246.663 25.9655 246.663 28.2614H247.663ZM248.835 22.5689C249.623 20.93 250.71 19.6678 252.095 18.7655L251.549 17.9277C249.998 18.9383 248.794 20.3465 247.934 22.1357L248.835 22.5689ZM252.095 18.7651C253.482 17.8584 255.108 17.3977 256.992 17.3977V16.3977C254.937 16.3977 253.116 16.903 251.548 17.9281L252.095 18.7651ZM256.992 17.3977C258.072 17.3977 259.139 17.5775 260.197 17.939L260.52 16.9928C259.362 16.5968 258.185 16.3977 256.992 16.3977V17.3977ZM260.197 17.939C261.234 18.2934 262.182 18.8703 263.042 19.6773L263.726 18.9477C262.769 18.0501 261.7 17.396 260.52 16.9928L260.197 17.939ZM263.044 19.6792C263.888 20.4609 264.573 21.51 265.091 22.8455L266.024 22.484C265.462 21.0355 264.699 19.8497 263.724 18.9458L263.044 19.6792ZM265.091 22.8455C265.602 24.1631 265.867 25.8116 265.867 27.8068H266.867C266.867 25.73 266.592 23.9505 266.024 22.484L265.091 22.8455ZM265.867 27.8068V29.2273H266.867V27.8068H265.867ZM266.367 28.7273H249.549V29.7273H266.367V28.7273ZM250.049 29.2273V26.3295H249.049V29.2273H250.049ZM249.549 26.8295H262.958V25.8295H249.549V26.8295ZM263.458 26.3295C263.458 25.0303 263.198 23.8522 262.665 22.807L261.774 23.2612C262.226 24.1478 262.458 25.1666 262.458 26.3295H263.458ZM262.667 22.8105C262.143 21.7636 261.389 20.9309 260.409 20.3224L259.882 21.1719C260.701 21.6808 261.33 22.3728 261.772 23.2577L262.667 22.8105ZM260.411 20.3237C259.43 19.7077 258.284 19.4091 256.992 19.4091V20.4091C258.125 20.4091 259.081 20.6692 259.88 21.1707L260.411 20.3237ZM256.992 19.4091C255.57 19.4091 254.314 19.7634 253.245 20.4899L253.807 21.3169C254.689 20.7177 255.743 20.4091 256.992 20.4091V19.4091ZM253.246 20.4893C252.208 21.1914 251.407 22.1101 250.848 23.2382L251.744 23.6822C252.227 22.7081 252.913 21.9222 253.806 21.3176L253.246 20.4893ZM250.848 23.2382C250.292 24.3602 250.015 25.5633 250.015 26.8409H251.015C251.015 25.7133 251.258 24.6626 251.744 23.6822L250.848 23.2382ZM250.015 26.8409V28.7727H251.015V26.8409H250.015ZM250.015 28.7727C250.015 30.476 250.308 31.9534 250.919 33.1852L251.815 32.7409C251.29 31.6811 251.015 30.3649 251.015 28.7727H250.015ZM250.921 33.1896C251.539 34.4048 252.404 35.3457 253.516 35.9944L254.02 35.1306C253.086 34.5862 252.351 33.7941 251.813 32.7365L250.921 33.1896ZM253.519 35.9961C254.628 36.6328 255.905 36.9432 257.333 36.9432V35.9432C256.053 35.9432 254.953 35.6664 254.017 35.1289L253.519 35.9961ZM257.333 36.9432C258.26 36.9432 259.112 36.8136 259.883 36.5463L259.556 35.6014C258.906 35.8266 258.167 35.9432 257.333 35.9432V36.9432ZM259.887 36.545C260.67 36.2669 261.352 35.8516 261.927 35.2975L261.233 34.5775C260.767 35.0272 260.209 35.3695 259.552 35.6027L259.887 36.545ZM261.931 35.2943C262.509 34.7265 262.949 34.028 263.256 33.2097L262.319 32.8585C262.058 33.5553 261.693 34.1258 261.23 34.5807L261.931 35.2943ZM262.653 33.5155L265.891 34.4246L266.161 33.4618L262.923 32.5527L262.653 33.5155ZM265.549 33.795C265.231 34.8182 264.699 35.716 263.948 36.4935L264.667 37.1883C265.526 36.2991 266.14 35.2651 266.504 34.0914L265.549 33.795ZM263.95 36.4915C263.199 37.2596 262.267 37.8663 261.142 38.3072L261.507 39.2382C262.75 38.7511 263.806 38.0699 264.665 37.1903L263.95 36.4915ZM261.145 38.306C260.027 38.7352 258.759 38.9545 257.333 38.9545V39.9545C258.862 39.9545 260.254 39.7193 261.504 39.2395L261.145 38.306ZM276.41 39L275.932 39.1457L276.039 39.5H276.41V39ZM269.762 17.1818V16.6818H269.087L269.284 17.3275L269.762 17.1818ZM273.285 17.1818L273.766 17.046L273.663 16.6818H273.285V17.1818ZM278.001 33.8864L277.52 34.0222L277.622 34.3864H278.001V33.8864ZM278.228 33.8864V34.3864H278.608L278.71 34.0207L278.228 33.8864ZM282.887 17.1818V16.6818H282.507L282.405 17.0475L282.887 17.1818ZM286.467 17.1818L286.949 17.0486L286.847 16.6818H286.467V17.1818ZM291.069 33.8295L290.587 33.9628L290.688 34.3295H291.069V33.8295ZM291.296 33.8295V34.3295H291.674L291.777 33.9658L291.296 33.8295ZM296.012 17.1818V16.6818H295.634L295.531 17.0455L296.012 17.1818ZM299.535 17.1818L300.013 17.3275L300.21 16.6818H299.535V17.1818ZM292.887 39V39.5H293.257L293.365 39.1457L292.887 39ZM289.592 39L289.111 39.1369L289.214 39.5H289.592V39ZM284.819 22.2386L285.3 22.1017L285.196 21.7386H284.819V22.2386ZM284.478 22.2386V21.7386H284.1L283.997 22.1017L284.478 22.2386ZM279.705 39V39.5H280.083L280.186 39.1369L279.705 39ZM276.888 38.8543L270.24 17.0361L269.284 17.3275L275.932 39.1457L276.888 38.8543ZM269.762 17.6818H273.285V16.6818H269.762V17.6818ZM272.804 17.3177L277.52 34.0222L278.482 33.7505L273.766 17.046L272.804 17.3177ZM278.001 34.3864H278.228V33.3864H278.001V34.3864ZM278.71 34.0207L283.369 17.3161L282.405 17.0475L277.746 33.752L278.71 34.0207ZM282.887 17.6818H286.467V16.6818H282.887V17.6818ZM285.985 17.315L290.587 33.9628L291.551 33.6963L286.949 17.0486L285.985 17.315ZM291.069 34.3295H291.296V33.3295H291.069V34.3295ZM291.777 33.9658L296.493 17.3181L295.531 17.0455L290.815 33.6933L291.777 33.9658ZM296.012 17.6818H299.535V16.6818H296.012V17.6818ZM299.057 17.0361L292.409 38.8543L293.365 39.1457L300.013 17.3275L299.057 17.0361ZM292.887 38.5H289.592V39.5H292.887V38.5ZM290.073 38.8631L285.3 22.1017L284.338 22.3756L289.111 39.1369L290.073 38.8631ZM284.819 21.7386H284.478V22.7386H284.819V21.7386ZM283.997 22.1017L279.224 38.8631L280.186 39.1369L284.959 22.3756L283.997 22.1017ZM279.705 38.5H276.41V39.5H279.705V38.5ZM319.421 22.0682L319.557 22.5493L320.062 22.4065L319.895 21.9092L319.421 22.0682ZM316.41 22.9205L315.942 23.097L316.104 23.5266L316.546 23.4016L316.41 22.9205ZM315.572 21.4574L315.171 21.7562L315.177 21.7649L315.572 21.4574ZM314.094 20.2642L314.318 19.817L314.094 20.2642ZM308.356 20.7188L308.639 21.1306L308.64 21.13L308.356 20.7188ZM307.944 25.0085L307.632 25.3996V25.3996L307.944 25.0085ZM310.785 26.2159L310.664 26.701L310.666 26.7015L310.785 26.2159ZM314.023 27.0114L313.904 27.4969L313.906 27.4973L314.023 27.0114ZM318.384 29.1847L318.027 29.5347L318.029 29.5365L318.384 29.1847ZM318.739 36.2727L318.336 35.9777L318.334 35.9803L318.739 36.2727ZM305.771 38.0057L306.047 37.5888L305.771 38.0057ZM303.001 33.7727L302.879 33.2877L302.413 33.4043L302.511 33.8751L303.001 33.7727ZM306.183 32.9773L306.667 32.8523L306.543 32.3718L306.061 32.4922L306.183 32.9773ZM307.901 35.6193L307.615 36.0296L307.618 36.0311L307.901 35.6193ZM314.961 35.5057L315.254 35.9111L315.254 35.9106L314.961 35.5057ZM315.558 31.1875L315.207 31.5442L315.21 31.5474L315.558 31.1875ZM313.114 30.0227L313 30.5095L313.001 30.5097L313.114 30.0227ZM309.478 29.1705L309.363 29.657L309.364 29.6573L309.478 29.1705ZM305.075 26.9688L304.707 27.3082L304.711 27.3118L305.075 26.9688ZM304.719 19.9375L304.318 19.6401L304.316 19.6427L304.719 19.9375ZM307.575 17.7074L307.371 17.2506L307.37 17.2512L307.575 17.7074ZM316.779 18.3182L316.474 18.7145L316.476 18.7156L316.779 18.3182ZM319.285 21.5871L316.274 22.4394L316.546 23.4016L319.557 22.5493L319.285 21.5871ZM316.878 22.7439C316.668 22.1897 316.363 21.6584 315.966 21.1499L315.177 21.7649C315.519 22.2034 315.772 22.6475 315.942 23.097L316.878 22.7439ZM315.973 21.1586C315.559 20.6037 315.002 20.1588 314.318 19.817L313.871 20.7114C314.437 20.9946 314.865 21.3452 315.171 21.7561L315.973 21.1586ZM314.318 19.817C313.602 19.4588 312.718 19.2955 311.694 19.2955V20.2955C312.621 20.2955 313.337 20.4446 313.871 20.7114L314.318 19.817ZM311.694 19.2955C310.281 19.2955 309.063 19.6219 308.071 20.3075L308.64 21.13C309.429 20.5845 310.436 20.2955 311.694 20.2955V19.2955ZM308.072 20.3069C307.078 20.991 306.535 21.9069 306.535 23.0341H307.535C307.535 22.2863 307.872 21.6586 308.639 21.1306L308.072 20.3069ZM306.535 23.0341C306.535 24.0065 306.897 24.8138 307.632 25.3996L308.255 24.6175C307.778 24.2373 307.535 23.7284 307.535 23.0341H306.535ZM307.632 25.3996C308.321 25.9482 309.349 26.3723 310.664 26.701L310.906 25.7308C309.645 25.4156 308.779 25.0348 308.255 24.6175L307.632 25.3996ZM310.666 26.7015L313.904 27.4969L314.143 26.5258L310.904 25.7303L310.666 26.7015ZM313.906 27.4973C315.805 27.9584 317.16 28.6504 318.027 29.5347L318.741 28.8346C317.696 27.7682 316.143 27.0113 314.141 26.5255L313.906 27.4973ZM318.029 29.5365C318.881 30.397 319.319 31.5101 319.319 32.9205H320.319C320.319 31.2816 319.8 29.9041 318.74 28.8329L318.029 29.5365ZM319.319 32.9205C319.319 34.0672 318.991 35.0807 318.336 35.9777L319.143 36.5677C319.927 35.495 320.319 34.2737 320.319 32.9205H319.319ZM318.334 35.9803C317.683 36.883 316.763 37.6076 315.553 38.1454L315.959 39.0592C317.306 38.4606 318.375 37.6321 319.145 36.5652L318.334 35.9803ZM315.553 38.1454C314.351 38.6798 312.936 38.9545 311.296 38.9545V39.9545C313.047 39.9545 314.605 39.6611 315.959 39.0592L315.553 38.1454ZM311.296 38.9545C309.142 38.9545 307.403 38.4875 306.047 37.5888L305.494 38.4225C307.054 39.4557 308.999 39.9545 311.296 39.9545V38.9545ZM306.047 37.5888C304.708 36.702 303.854 35.4095 303.49 33.6703L302.511 33.8751C302.924 35.8481 303.917 37.3775 305.494 38.4225L306.047 37.5888ZM303.122 34.2578L306.304 33.4623L306.061 32.4922L302.879 33.2877L303.122 34.2578ZM305.698 33.1022C306.026 34.3702 306.657 35.3622 307.615 36.0296L308.187 35.2091C307.46 34.7022 306.946 33.9328 306.667 32.8523L305.698 33.1022ZM307.618 36.0311C308.577 36.6917 309.798 37 311.239 37V36C309.935 36 308.93 35.7211 308.185 35.2076L307.618 36.0311ZM311.239 37C312.868 37 314.223 36.6549 315.254 35.9111L314.668 35.1002C313.862 35.6822 312.736 36 311.239 36V37ZM315.254 35.9106C316.28 35.1677 316.853 34.225 316.853 33.0909H315.853C315.853 33.8319 315.498 34.499 314.668 35.1008L315.254 35.9106ZM316.853 33.0909C316.853 32.2019 316.536 31.4361 315.905 30.8276L315.21 31.5474C315.64 31.9616 315.853 32.4648 315.853 33.0909H316.853ZM315.908 30.8308C315.286 30.2205 314.373 29.8023 313.228 29.5357L313.001 30.5097C314.053 30.7545 314.768 31.1129 315.207 31.5442L315.908 30.8308ZM313.228 29.5359L309.592 28.6836L309.364 29.6573L313 30.5095L313.228 29.5359ZM309.593 28.6839C307.646 28.2224 306.283 27.5216 305.438 26.6257L304.711 27.3118C305.741 28.4045 307.314 29.1716 309.363 29.657L309.593 28.6839ZM305.442 26.6293C304.608 25.7276 304.183 24.5982 304.183 23.2045H303.183C303.183 24.8222 303.685 26.2023 304.707 27.3082L305.442 26.6293ZM304.183 23.2045C304.183 22.0738 304.498 21.0892 305.123 20.2323L304.316 19.6427C303.559 20.6797 303.183 21.8732 303.183 23.2045H304.183ZM305.121 20.2349C305.765 19.3648 306.645 18.6725 307.779 18.1635L307.37 17.2512C306.098 17.8219 305.075 18.6162 304.318 19.6401L305.121 20.2349ZM307.778 18.1641C308.917 17.657 310.219 17.3977 311.694 17.3977V16.3977C310.101 16.3977 308.657 16.6782 307.371 17.2506L307.778 18.1641ZM311.694 17.3977C313.785 17.3977 315.359 17.8566 316.474 18.7145L317.084 17.9219C315.737 16.8858 313.921 16.3977 311.694 16.3977V17.3977ZM316.476 18.7156C317.633 19.5988 318.456 20.7639 318.947 22.2272L319.895 21.9092C319.344 20.2664 318.407 18.9315 317.083 17.9207L316.476 18.7156Z" fill="white"/>
</svg>
