<svg width="368" height="76" viewBox="0 0 368 76" fill="none" xmlns="http://www.w3.org/2000/svg">
<rect width="368" height="76" rx="5" fill="#8062BE"/>
<path d="M124 23H74V28H124V23Z" fill="white"/>
<path d="M124 35H24V40H124V35Z" fill="white"/>
<path d="M124 47H44V52H124V47Z" fill="white"/>
<path d="M129.932 27.0341V23.9091H151.75V27.0341H142.602V53H139.08V27.0341H129.932ZM154.467 53V31.1818H157.705V34.4773H157.933C158.33 33.3977 159.05 32.5218 160.092 31.8494C161.133 31.1771 162.308 30.8409 163.614 30.8409C163.861 30.8409 164.168 30.8456 164.538 30.8551C164.907 30.8646 165.186 30.8788 165.376 30.8977V34.3068C165.262 34.2784 165.002 34.2358 164.594 34.179C164.197 34.1127 163.775 34.0795 163.33 34.0795C162.27 34.0795 161.323 34.3021 160.489 34.7472C159.665 35.1828 159.012 35.7888 158.529 36.5653C158.056 37.3324 157.819 38.2083 157.819 39.1932V53H154.467ZM183.099 44.0795V31.1818H186.452V53H183.099V49.3068H182.872C182.361 50.4148 181.565 51.357 180.486 52.1335C179.406 52.9006 178.043 53.2841 176.395 53.2841C175.031 53.2841 173.819 52.9858 172.759 52.3892C171.698 51.7831 170.865 50.8741 170.259 49.6619C169.652 48.4403 169.349 46.9015 169.349 45.0455V31.1818H172.702V44.8182C172.702 46.4091 173.147 47.678 174.037 48.625C174.937 49.572 176.082 50.0455 177.474 50.0455C178.308 50.0455 179.155 49.8324 180.017 49.4062C180.888 48.9801 181.617 48.3267 182.205 47.446C182.801 46.5653 183.099 45.4432 183.099 44.0795ZM208.046 36.0682L205.035 36.9205C204.845 36.4186 204.566 35.9309 204.197 35.4574C203.837 34.9744 203.344 34.5767 202.719 34.2642C202.094 33.9517 201.294 33.7955 200.319 33.7955C198.984 33.7955 197.871 34.1032 196.981 34.7188C196.1 35.3248 195.66 36.0966 195.66 37.0341C195.66 37.8674 195.963 38.5256 196.569 39.0085C197.175 39.4915 198.122 39.8939 199.41 40.2159L202.648 41.0114C204.599 41.4848 206.053 42.2093 207.009 43.1847C207.966 44.1506 208.444 45.3958 208.444 46.9205C208.444 48.1705 208.084 49.2879 207.364 50.2727C206.654 51.2576 205.66 52.0341 204.381 52.6023C203.103 53.1705 201.616 53.4545 199.921 53.4545C197.696 53.4545 195.854 52.9716 194.396 52.0057C192.937 51.0398 192.014 49.6288 191.626 47.7727L194.808 46.9773C195.111 48.1515 195.683 49.0322 196.526 49.6193C197.379 50.2064 198.491 50.5 199.864 50.5C201.427 50.5 202.667 50.1686 203.586 49.5057C204.514 48.8333 204.978 48.0284 204.978 47.0909C204.978 46.3333 204.713 45.6989 204.183 45.1875C203.652 44.6667 202.838 44.2784 201.739 44.0227L198.103 43.1705C196.105 42.697 194.637 41.9631 193.7 40.9688C192.772 39.965 192.308 38.7102 192.308 37.2045C192.308 35.9735 192.653 34.8845 193.344 33.9375C194.045 32.9905 194.997 32.2472 196.2 31.7074C197.412 31.1676 198.785 30.8977 200.319 30.8977C202.478 30.8977 204.173 31.3712 205.404 32.3182C206.645 33.2652 207.525 34.5152 208.046 36.0682ZM222.979 31.1818V34.0227H211.672V31.1818H222.979ZM214.967 25.9545H218.32V46.75C218.32 47.697 218.457 48.4072 218.732 48.8807C219.016 49.3447 219.375 49.6572 219.811 49.8182C220.256 49.9697 220.725 50.0455 221.217 50.0455C221.587 50.0455 221.89 50.0265 222.126 49.9886C222.363 49.9413 222.553 49.9034 222.695 49.875L223.376 52.8864C223.149 52.9716 222.832 53.0568 222.425 53.142C222.018 53.2367 221.501 53.2841 220.876 53.2841C219.929 53.2841 219.001 53.0805 218.092 52.6733C217.193 52.2661 216.445 51.6458 215.848 50.8125C215.261 49.9792 214.967 48.928 214.967 47.6591V25.9545ZM262.794 23.9091V53H259.385L243.533 30.1591H243.249V53H239.726V23.9091H243.135L259.044 46.8068H259.328V23.9091H262.794ZM278.536 53.4545C276.434 53.4545 274.621 52.9905 273.096 52.0625C271.581 51.125 270.411 49.8182 269.587 48.142C268.773 46.4564 268.366 44.4962 268.366 42.2614C268.366 40.0265 268.773 38.0568 269.587 36.3523C270.411 34.6383 271.557 33.303 273.025 32.3466C274.502 31.3807 276.226 30.8977 278.195 30.8977C279.332 30.8977 280.454 31.0871 281.562 31.4659C282.67 31.8447 283.678 32.4602 284.587 33.3125C285.496 34.1553 286.221 35.2727 286.761 36.6648C287.3 38.0568 287.57 39.7708 287.57 41.8068V43.2273H270.752V40.3295H284.161C284.161 39.0985 283.915 38 283.423 37.0341C282.94 36.0682 282.248 35.3059 281.349 34.7472C280.459 34.1884 279.407 33.9091 278.195 33.9091C276.86 33.9091 275.705 34.2405 274.729 34.9034C273.763 35.5568 273.02 36.4091 272.499 37.4602C271.978 38.5114 271.718 39.6383 271.718 40.8409V42.7727C271.718 44.4205 272.002 45.8172 272.57 46.9631C273.148 48.0994 273.948 48.9659 274.971 49.5625C275.994 50.1496 277.182 50.4432 278.536 50.4432C279.417 50.4432 280.212 50.3201 280.923 50.0739C281.642 49.8182 282.263 49.4394 282.783 48.9375C283.304 48.4261 283.707 47.7917 283.991 47.0341L287.229 47.9432C286.888 49.0417 286.316 50.0076 285.511 50.8409C284.706 51.6648 283.711 52.3087 282.528 52.7727C281.344 53.2273 280.013 53.4545 278.536 53.4545ZM297.613 53L290.965 31.1818H294.488L299.204 47.8864H299.431L304.09 31.1818H307.67L312.272 47.8295H312.499L317.215 31.1818H320.738L314.09 53H310.795L306.022 36.2386H305.681L300.908 53H297.613ZM340.624 36.0682L337.613 36.9205C337.424 36.4186 337.144 35.9309 336.775 35.4574C336.415 34.9744 335.923 34.5767 335.298 34.2642C334.673 33.9517 333.872 33.7955 332.897 33.7955C331.562 33.7955 330.449 34.1032 329.559 34.7188C328.678 35.3248 328.238 36.0966 328.238 37.0341C328.238 37.8674 328.541 38.5256 329.147 39.0085C329.753 39.4915 330.7 39.8939 331.988 40.2159L335.227 41.0114C337.177 41.4848 338.631 42.2093 339.587 43.1847C340.544 44.1506 341.022 45.3958 341.022 46.9205C341.022 48.1705 340.662 49.2879 339.942 50.2727C339.232 51.2576 338.238 52.0341 336.96 52.6023C335.681 53.1705 334.194 53.4545 332.499 53.4545C330.274 53.4545 328.432 52.9716 326.974 52.0057C325.515 51.0398 324.592 49.6288 324.204 47.7727L327.386 46.9773C327.689 48.1515 328.262 49.0322 329.104 49.6193C329.957 50.2064 331.069 50.5 332.442 50.5C334.005 50.5 335.246 50.1686 336.164 49.5057C337.092 48.8333 337.556 48.0284 337.556 47.0909C337.556 46.3333 337.291 45.6989 336.761 45.1875C336.23 44.6667 335.416 44.2784 334.317 44.0227L330.681 43.1705C328.683 42.697 327.215 41.9631 326.278 40.9688C325.35 39.965 324.886 38.7102 324.886 37.2045C324.886 35.9735 325.231 34.8845 325.923 33.9375C326.623 32.9905 327.575 32.2472 328.778 31.7074C329.99 31.1676 331.363 30.8977 332.897 30.8977C335.056 30.8977 336.751 31.3712 337.982 32.3182C339.223 33.2652 340.103 34.5152 340.624 36.0682Z" fill="white"/>
<path d="M265.591 23.9091H266.091V23.4091H265.591V23.9091ZM265.591 53V53.5H266.091V53H265.591ZM262.182 53L261.771 53.2851L261.92 53.5H262.182V53ZM246.33 30.1591L246.74 29.874L246.591 29.6591H246.33V30.1591ZM246.045 30.1591V29.6591H245.545V30.1591H246.045ZM246.045 53V53.5H246.545V53H246.045ZM242.523 53H242.023V53.5H242.523V53ZM242.523 23.9091V23.4091H242.023V23.9091H242.523ZM245.932 23.9091L246.342 23.6238L246.193 23.4091H245.932V23.9091ZM261.841 46.8068L261.43 47.0921L261.579 47.3068H261.841V46.8068ZM262.125 46.8068V47.3068H262.625V46.8068H262.125ZM262.125 23.9091V23.4091H261.625V23.9091H262.125ZM265.091 23.9091V53H266.091V23.9091H265.091ZM265.591 52.5H262.182V53.5H265.591V52.5ZM262.593 52.7149L246.74 29.874L245.919 30.4442L261.771 53.2851L262.593 52.7149ZM246.33 29.6591H246.045V30.6591H246.33V29.6591ZM245.545 30.1591V53H246.545V30.1591H245.545ZM246.045 52.5H242.523V53.5H246.045V52.5ZM243.023 53V23.9091H242.023V53H243.023ZM242.523 24.4091H245.932V23.4091H242.523V24.4091ZM245.521 24.1944L261.43 47.0921L262.252 46.5215L246.342 23.6238L245.521 24.1944ZM261.841 47.3068H262.125V46.3068H261.841V47.3068ZM262.625 46.8068V23.9091H261.625V46.8068H262.625ZM262.125 24.4091H265.591V23.4091H262.125V24.4091ZM275.893 52.0625L275.63 52.4877L275.633 52.4896L275.893 52.0625ZM272.384 48.142L271.934 48.3596L271.936 48.3626L272.384 48.142ZM272.384 36.3523L271.934 36.1357L271.933 36.1367L272.384 36.3523ZM275.822 32.3466L276.095 32.7655L276.095 32.7651L275.822 32.3466ZM284.359 31.4659L284.52 30.9928L284.359 31.4659ZM287.384 33.3125L287.042 33.6773L287.044 33.6792L287.384 33.3125ZM289.558 36.6648L290.024 36.484L289.558 36.6648ZM290.367 43.2273V43.7273H290.867V43.2273H290.367ZM273.549 43.2273H273.049V43.7273H273.549V43.2273ZM273.549 40.3295V39.8295H273.049V40.3295H273.549ZM286.958 40.3295V40.8295H287.458V40.3295H286.958ZM286.219 37.0341L285.772 37.2577L285.774 37.2612L286.219 37.0341ZM284.146 34.7472L283.88 35.1707L283.882 35.1719L284.146 34.7472ZM277.526 34.9034L277.806 35.3176L277.807 35.3169L277.526 34.9034ZM275.296 37.4602L274.848 37.2382L275.296 37.4602ZM275.367 46.9631L274.919 47.1852L274.921 47.1896L275.367 46.9631ZM277.768 49.5625L277.516 49.9944L277.519 49.9961L277.768 49.5625ZM283.719 50.0739L283.883 50.5463L283.887 50.545L283.719 50.0739ZM285.58 48.9375L285.927 49.2976L285.931 49.2943L285.58 48.9375ZM286.788 47.0341L286.923 46.5527L286.481 46.4286L286.319 46.8585L286.788 47.0341ZM290.026 47.9432L290.504 48.0914L290.656 47.6007L290.161 47.4618L290.026 47.9432ZM288.308 50.8409L288.665 51.1903L288.667 51.1883L288.308 50.8409ZM285.325 52.7727L285.504 53.2395L285.507 53.2382L285.325 52.7727ZM281.333 52.9545C279.306 52.9545 277.586 52.5078 276.153 51.6354L275.633 52.4896C277.249 53.4732 279.156 53.9545 281.333 53.9545V52.9545ZM276.156 51.6373C274.725 50.7517 273.617 49.5176 272.833 47.9215L271.936 48.3626C272.799 50.1188 274.031 51.4983 275.63 52.4877L276.156 51.6373ZM272.834 47.9245C272.059 46.3187 271.663 44.4353 271.663 42.2614H270.663C270.663 44.5571 271.081 46.5942 271.934 48.3596L272.834 47.9245ZM271.663 42.2614C271.663 40.0876 272.059 38.1938 272.835 36.5678L271.933 36.1367C271.081 37.9198 270.663 39.9655 270.663 42.2614H271.663ZM272.835 36.5689C273.623 34.93 274.71 33.6678 276.095 32.7655L275.549 31.9277C273.998 32.9383 272.794 34.3465 271.934 36.1357L272.835 36.5689ZM276.095 32.7651C277.482 31.8584 279.108 31.3977 280.992 31.3977V30.3977C278.937 30.3977 277.116 30.903 275.548 31.9281L276.095 32.7651ZM280.992 31.3977C282.072 31.3977 283.139 31.5775 284.197 31.939L284.52 30.9928C283.362 30.5968 282.185 30.3977 280.992 30.3977V31.3977ZM284.197 31.939C285.234 32.2934 286.182 32.8703 287.042 33.6773L287.726 32.9477C286.769 32.0501 285.7 31.396 284.52 30.9928L284.197 31.939ZM287.044 33.6792C287.888 34.4609 288.573 35.51 289.091 36.8455L290.024 36.484C289.462 35.0355 288.699 33.8497 287.724 32.9458L287.044 33.6792ZM289.091 36.8455C289.602 38.1631 289.867 39.8116 289.867 41.8068H290.867C290.867 39.73 290.592 37.9505 290.024 36.484L289.091 36.8455ZM289.867 41.8068V43.2273H290.867V41.8068H289.867ZM290.367 42.7273H273.549V43.7273H290.367V42.7273ZM274.049 43.2273V40.3295H273.049V43.2273H274.049ZM273.549 40.8295H286.958V39.8295H273.549V40.8295ZM287.458 40.3295C287.458 39.0303 287.198 37.8522 286.665 36.807L285.774 37.2612C286.226 38.1478 286.458 39.1666 286.458 40.3295H287.458ZM286.667 36.8105C286.143 35.7636 285.389 34.9309 284.409 34.3224L283.882 35.1719C284.701 35.6808 285.33 36.3728 285.772 37.2577L286.667 36.8105ZM284.411 34.3237C283.43 33.7077 282.284 33.4091 280.992 33.4091V34.4091C282.125 34.4091 283.081 34.6692 283.88 35.1707L284.411 34.3237ZM280.992 33.4091C279.57 33.4091 278.314 33.7634 277.245 34.4899L277.807 35.3169C278.689 34.7177 279.743 34.4091 280.992 34.4091V33.4091ZM277.246 34.4893C276.208 35.1914 275.407 36.1101 274.848 37.2382L275.744 37.6822C276.227 36.7081 276.913 35.9222 277.806 35.3176L277.246 34.4893ZM274.848 37.2382C274.292 38.3602 274.015 39.5633 274.015 40.8409H275.015C275.015 39.7133 275.258 38.6626 275.744 37.6822L274.848 37.2382ZM274.015 40.8409V42.7727H275.015V40.8409H274.015ZM274.015 42.7727C274.015 44.476 274.308 45.9534 274.919 47.1852L275.815 46.7409C275.29 45.6811 275.015 44.3649 275.015 42.7727H274.015ZM274.921 47.1896C275.539 48.4048 276.404 49.3457 277.516 49.9944L278.02 49.1306C277.086 48.5862 276.351 47.7941 275.813 46.7365L274.921 47.1896ZM277.519 49.9961C278.628 50.6328 279.905 50.9432 281.333 50.9432V49.9432C280.053 49.9432 278.953 49.6664 278.017 49.1289L277.519 49.9961ZM281.333 50.9432C282.26 50.9432 283.112 50.8136 283.883 50.5463L283.556 49.6014C282.906 49.8266 282.167 49.9432 281.333 49.9432V50.9432ZM283.887 50.545C284.67 50.2669 285.352 49.8516 285.927 49.2975L285.233 48.5775C284.767 49.0272 284.209 49.3695 283.552 49.6027L283.887 50.545ZM285.931 49.2943C286.509 48.7265 286.949 48.028 287.256 47.2097L286.319 46.8585C286.058 47.5553 285.693 48.1258 285.23 48.5807L285.931 49.2943ZM286.653 47.5155L289.891 48.4246L290.161 47.4618L286.923 46.5527L286.653 47.5155ZM289.549 47.795C289.231 48.8182 288.699 49.716 287.948 50.4935L288.667 51.1883C289.526 50.2991 290.14 49.2651 290.504 48.0914L289.549 47.795ZM287.95 50.4915C287.199 51.2596 286.267 51.8663 285.142 52.3072L285.507 53.2382C286.75 52.7511 287.806 52.0699 288.665 51.1903L287.95 50.4915ZM285.145 52.306C284.027 52.7352 282.759 52.9545 281.333 52.9545V53.9545C282.862 53.9545 284.254 53.7193 285.504 53.2395L285.145 52.306ZM300.41 53L299.932 53.1457L300.039 53.5H300.41V53ZM293.762 31.1818V30.6818H293.087L293.284 31.3275L293.762 31.1818ZM297.285 31.1818L297.766 31.046L297.663 30.6818H297.285V31.1818ZM302.001 47.8864L301.52 48.0222L301.622 48.3864H302.001V47.8864ZM302.228 47.8864V48.3864H302.608L302.71 48.0207L302.228 47.8864ZM306.887 31.1818V30.6818H306.507L306.405 31.0475L306.887 31.1818ZM310.467 31.1818L310.949 31.0486L310.847 30.6818H310.467V31.1818ZM315.069 47.8295L314.587 47.9628L314.688 48.3295H315.069V47.8295ZM315.296 47.8295V48.3295H315.674L315.777 47.9658L315.296 47.8295ZM320.012 31.1818V30.6818H319.634L319.531 31.0455L320.012 31.1818ZM323.535 31.1818L324.013 31.3275L324.21 30.6818H323.535V31.1818ZM316.887 53V53.5H317.257L317.365 53.1457L316.887 53ZM313.592 53L313.111 53.1369L313.214 53.5H313.592V53ZM308.819 36.2386L309.3 36.1017L309.196 35.7386H308.819V36.2386ZM308.478 36.2386V35.7386H308.1L307.997 36.1017L308.478 36.2386ZM303.705 53V53.5H304.083L304.186 53.1369L303.705 53ZM300.888 52.8543L294.24 31.0361L293.284 31.3275L299.932 53.1457L300.888 52.8543ZM293.762 31.6818H297.285V30.6818H293.762V31.6818ZM296.804 31.3177L301.52 48.0222L302.482 47.7505L297.766 31.046L296.804 31.3177ZM302.001 48.3864H302.228V47.3864H302.001V48.3864ZM302.71 48.0207L307.369 31.3161L306.405 31.0475L301.746 47.752L302.71 48.0207ZM306.887 31.6818H310.467V30.6818H306.887V31.6818ZM309.985 31.315L314.587 47.9628L315.551 47.6963L310.949 31.0486L309.985 31.315ZM315.069 48.3295H315.296V47.3295H315.069V48.3295ZM315.777 47.9658L320.493 31.3181L319.531 31.0455L314.815 47.6933L315.777 47.9658ZM320.012 31.6818H323.535V30.6818H320.012V31.6818ZM323.057 31.0361L316.409 52.8543L317.365 53.1457L324.013 31.3275L323.057 31.0361ZM316.887 52.5H313.592V53.5H316.887V52.5ZM314.073 52.8631L309.3 36.1017L308.338 36.3756L313.111 53.1369L314.073 52.8631ZM308.819 35.7386H308.478V36.7386H308.819V35.7386ZM307.997 36.1017L303.224 52.8631L304.186 53.1369L308.959 36.3756L307.997 36.1017ZM303.705 52.5H300.41V53.5H303.705V52.5ZM343.421 36.0682L343.557 36.5493L344.062 36.4065L343.895 35.9092L343.421 36.0682ZM340.41 36.9205L339.942 37.097L340.104 37.5266L340.546 37.4016L340.41 36.9205ZM339.572 35.4574L339.171 35.7562L339.177 35.7649L339.572 35.4574ZM338.094 34.2642L338.318 33.817L338.094 34.2642ZM332.356 34.7188L332.639 35.1306L332.64 35.13L332.356 34.7188ZM331.944 39.0085L331.632 39.3996V39.3996L331.944 39.0085ZM334.785 40.2159L334.664 40.701L334.666 40.7015L334.785 40.2159ZM338.023 41.0114L337.904 41.4969L337.906 41.4973L338.023 41.0114ZM342.384 43.1847L342.027 43.5347L342.029 43.5365L342.384 43.1847ZM342.739 50.2727L342.336 49.9777L342.334 49.9803L342.739 50.2727ZM329.771 52.0057L330.047 51.5888L329.771 52.0057ZM327.001 47.7727L326.879 47.2877L326.413 47.4043L326.511 47.8751L327.001 47.7727ZM330.183 46.9773L330.667 46.8523L330.543 46.3718L330.061 46.4922L330.183 46.9773ZM331.901 49.6193L331.615 50.0296L331.618 50.0311L331.901 49.6193ZM338.961 49.5057L339.254 49.9111L339.254 49.9106L338.961 49.5057ZM339.558 45.1875L339.207 45.5442L339.21 45.5474L339.558 45.1875ZM337.114 44.0227L337 44.5095L337.001 44.5097L337.114 44.0227ZM333.478 43.1705L333.363 43.657L333.364 43.6573L333.478 43.1705ZM329.075 40.9688L328.707 41.3082L328.711 41.3118L329.075 40.9688ZM328.719 33.9375L328.318 33.6401L328.316 33.6427L328.719 33.9375ZM331.575 31.7074L331.371 31.2506L331.37 31.2512L331.575 31.7074ZM340.779 32.3182L340.474 32.7145L340.476 32.7156L340.779 32.3182ZM343.285 35.5871L340.274 36.4394L340.546 37.4016L343.557 36.5493L343.285 35.5871ZM340.878 36.7439C340.668 36.1897 340.363 35.6584 339.966 35.1499L339.177 35.7649C339.519 36.2034 339.772 36.6475 339.942 37.097L340.878 36.7439ZM339.973 35.1586C339.559 34.6037 339.002 34.1588 338.318 33.817L337.871 34.7114C338.437 34.9946 338.865 35.3452 339.171 35.7561L339.973 35.1586ZM338.318 33.817C337.602 33.4588 336.718 33.2955 335.694 33.2955V34.2955C336.621 34.2955 337.337 34.4446 337.871 34.7114L338.318 33.817ZM335.694 33.2955C334.281 33.2955 333.063 33.6219 332.071 34.3075L332.64 35.13C333.429 34.5845 334.436 34.2955 335.694 34.2955V33.2955ZM332.072 34.3069C331.078 34.991 330.535 35.9069 330.535 37.0341H331.535C331.535 36.2863 331.872 35.6586 332.639 35.1306L332.072 34.3069ZM330.535 37.0341C330.535 38.0065 330.897 38.8138 331.632 39.3996L332.255 38.6175C331.778 38.2373 331.535 37.7284 331.535 37.0341H330.535ZM331.632 39.3996C332.321 39.9482 333.349 40.3723 334.664 40.701L334.906 39.7308C333.645 39.4156 332.779 39.0348 332.255 38.6175L331.632 39.3996ZM334.666 40.7015L337.904 41.4969L338.143 40.5258L334.904 39.7303L334.666 40.7015ZM337.906 41.4973C339.805 41.9584 341.16 42.6504 342.027 43.5347L342.741 42.8346C341.696 41.7682 340.143 41.0113 338.141 40.5255L337.906 41.4973ZM342.029 43.5365C342.881 44.397 343.319 45.5101 343.319 46.9205H344.319C344.319 45.2816 343.8 43.9041 342.74 42.8329L342.029 43.5365ZM343.319 46.9205C343.319 48.0672 342.991 49.0807 342.336 49.9777L343.143 50.5677C343.927 49.495 344.319 48.2737 344.319 46.9205H343.319ZM342.334 49.9803C341.683 50.883 340.763 51.6076 339.553 52.1454L339.959 53.0592C341.306 52.4606 342.375 51.6321 343.145 50.5652L342.334 49.9803ZM339.553 52.1454C338.351 52.6798 336.936 52.9545 335.296 52.9545V53.9545C337.047 53.9545 338.605 53.6611 339.959 53.0592L339.553 52.1454ZM335.296 52.9545C333.142 52.9545 331.403 52.4875 330.047 51.5888L329.494 52.4225C331.054 53.4557 332.999 53.9545 335.296 53.9545V52.9545ZM330.047 51.5888C328.708 50.702 327.854 49.4095 327.49 47.6703L326.511 47.8751C326.924 49.8481 327.917 51.3775 329.494 52.4225L330.047 51.5888ZM327.122 48.2578L330.304 47.4623L330.061 46.4922L326.879 47.2877L327.122 48.2578ZM329.698 47.1022C330.026 48.3702 330.657 49.3622 331.615 50.0296L332.187 49.2091C331.46 48.7022 330.946 47.9328 330.667 46.8523L329.698 47.1022ZM331.618 50.0311C332.577 50.6917 333.798 51 335.239 51V50C333.935 50 332.93 49.7211 332.185 49.2076L331.618 50.0311ZM335.239 51C336.868 51 338.223 50.6549 339.254 49.9111L338.668 49.1002C337.862 49.6822 336.736 50 335.239 50V51ZM339.254 49.9106C340.28 49.1677 340.853 48.225 340.853 47.0909H339.853C339.853 47.8319 339.498 48.499 338.668 49.1008L339.254 49.9106ZM340.853 47.0909C340.853 46.2019 340.536 45.4361 339.905 44.8276L339.21 45.5474C339.64 45.9616 339.853 46.4648 339.853 47.0909H340.853ZM339.908 44.8308C339.286 44.2205 338.373 43.8023 337.228 43.5357L337.001 44.5097C338.053 44.7545 338.768 45.1129 339.207 45.5442L339.908 44.8308ZM337.228 43.5359L333.592 42.6836L333.364 43.6573L337 44.5095L337.228 43.5359ZM333.593 42.6839C331.646 42.2224 330.283 41.5216 329.438 40.6257L328.711 41.3118C329.741 42.4045 331.314 43.1716 333.363 43.657L333.593 42.6839ZM329.442 40.6293C328.608 39.7276 328.183 38.5982 328.183 37.2045H327.183C327.183 38.8222 327.685 40.2023 328.707 41.3082L329.442 40.6293ZM328.183 37.2045C328.183 36.0738 328.498 35.0892 329.123 34.2323L328.316 33.6427C327.559 34.6797 327.183 35.8732 327.183 37.2045H328.183ZM329.121 34.2349C329.765 33.3648 330.645 32.6725 331.779 32.1635L331.37 31.2512C330.098 31.8219 329.075 32.6162 328.318 33.6401L329.121 34.2349ZM331.778 32.1641C332.917 31.657 334.219 31.3977 335.694 31.3977V30.3977C334.101 30.3977 332.657 30.6782 331.371 31.2506L331.778 32.1641ZM335.694 31.3977C337.785 31.3977 339.359 31.8566 340.474 32.7145L341.084 31.9219C339.737 30.8858 337.921 30.3977 335.694 30.3977V31.3977ZM340.476 32.7156C341.633 33.5988 342.456 34.7639 342.947 36.2272L343.895 35.9092C343.344 34.2664 342.407 32.9315 341.083 31.9207L340.476 32.7156Z" fill="white"/>
</svg>
