<svg width="244" height="66" viewBox="0 0 244 66" fill="none" xmlns="http://www.w3.org/2000/svg">
<mask id="path-1-outside-1_350_466" maskUnits="userSpaceOnUse" x="10" y="11" width="226" height="43" fill="black">
<rect fill="white" x="10" y="11" width="226" height="43"/>
<path d="M11.8736 52V12.7273H18.9879V29.353H37.1861V12.7273H44.3196V52H37.1861V35.3168H18.9879V52H11.8736ZM64.5984 52.5753C61.7219 52.5753 59.229 51.9425 57.1197 50.6768C55.0103 49.4112 53.3739 47.6406 52.2106 45.3651C51.06 43.0895 50.4847 40.4304 50.4847 37.3878C50.4847 34.3452 51.06 31.6797 52.2106 29.3913C53.3739 27.103 55.0103 25.326 57.1197 24.0604C59.229 22.7947 61.7219 22.1619 64.5984 22.1619C67.4748 22.1619 69.9677 22.7947 72.0771 24.0604C74.1864 25.326 75.8164 27.103 76.967 29.3913C78.1303 31.6797 78.712 34.3452 78.712 37.3878C78.712 40.4304 78.1303 43.0895 76.967 45.3651C75.8164 47.6406 74.1864 49.4112 72.0771 50.6768C69.9677 51.9425 67.4748 52.5753 64.5984 52.5753ZM64.6367 47.0142C66.1964 47.0142 67.5004 46.5859 68.5487 45.7294C69.5969 44.8601 70.3768 43.6967 70.8881 42.2393C71.4123 40.782 71.6744 39.1584 71.6744 37.3686C71.6744 35.5661 71.4123 33.9361 70.8881 32.4787C70.3768 31.0085 69.5969 29.8388 68.5487 28.9695C67.5004 28.1001 66.1964 27.6655 64.6367 27.6655C63.0387 27.6655 61.7092 28.1001 60.6481 28.9695C59.5998 29.8388 58.8136 31.0085 58.2894 32.4787C57.7781 33.9361 57.5224 35.5661 57.5224 37.3686C57.5224 39.1584 57.7781 40.782 58.2894 42.2393C58.8136 43.6967 59.5998 44.8601 60.6481 45.7294C61.7092 46.5859 63.0387 47.0142 64.6367 47.0142ZM84.6039 52V22.5455H96.9725C100.463 22.5455 103.218 23.2422 105.237 24.6357C107.27 26.0291 108.286 27.9723 108.286 30.4652C108.286 32.1143 107.711 33.4631 106.561 34.5114C105.423 35.5469 103.869 36.2436 101.901 36.6016C103.448 36.7294 104.803 37.1193 105.966 37.7713C107.142 38.4233 108.063 39.2798 108.727 40.3409C109.392 41.402 109.725 42.6229 109.725 44.0036C109.725 45.6271 109.296 47.0398 108.44 48.2415C107.596 49.4304 106.362 50.3572 104.739 51.022C103.128 51.674 101.172 52 98.8709 52H84.6039ZM91.1046 46.5348H98.8709C100.149 46.5348 101.153 46.2344 101.882 45.6335C102.61 45.0199 102.975 44.1889 102.975 43.1406C102.975 41.9261 102.61 40.9737 101.882 40.2834C101.153 39.5803 100.149 39.2287 98.8709 39.2287H91.1046V46.5348ZM91.1046 34.7415H97.1067C98.0527 34.7415 98.8645 34.6072 99.5421 34.3388C100.22 34.0575 100.737 33.6676 101.095 33.169C101.453 32.6577 101.632 32.0504 101.632 31.3473C101.632 30.3374 101.217 29.5447 100.386 28.9695C99.5676 28.3942 98.4299 28.1065 96.9725 28.1065H91.1046V34.7415ZM128.301 52.5753C125.425 52.5753 122.932 51.9425 120.823 50.6768C118.713 49.4112 117.077 47.6406 115.914 45.3651C114.763 43.0895 114.188 40.4304 114.188 37.3878C114.188 34.3452 114.763 31.6797 115.914 29.3913C117.077 27.103 118.713 25.326 120.823 24.0604C122.932 22.7947 125.425 22.1619 128.301 22.1619C131.178 22.1619 133.671 22.7947 135.78 24.0604C137.89 25.326 139.52 27.103 140.67 29.3913C141.833 31.6797 142.415 34.3452 142.415 37.3878C142.415 40.4304 141.833 43.0895 140.67 45.3651C139.52 47.6406 137.89 49.4112 135.78 50.6768C133.671 51.9425 131.178 52.5753 128.301 52.5753ZM128.34 47.0142C129.9 47.0142 131.203 46.5859 132.252 45.7294C133.3 44.8601 134.08 43.6967 134.591 42.2393C135.115 40.782 135.377 39.1584 135.377 37.3686C135.377 35.5661 135.115 33.9361 134.591 32.4787C134.08 31.0085 133.3 29.8388 132.252 28.9695C131.203 28.1001 129.9 27.6655 128.34 27.6655C126.742 27.6655 125.412 28.1001 124.351 28.9695C123.303 29.8388 122.517 31.0085 121.993 32.4787C121.481 33.9361 121.225 35.5661 121.225 37.3686C121.225 39.1584 121.481 40.782 121.993 42.2393C122.517 43.6967 123.303 44.8601 124.351 45.7294C125.412 46.5859 126.742 47.0142 128.34 47.0142ZM161.155 52.5753C158.215 52.5753 155.69 51.9297 153.58 50.6385C151.484 49.3473 149.867 47.5639 148.729 45.2884C147.604 43 147.041 40.3665 147.041 37.3878C147.041 34.3963 147.617 31.7564 148.767 29.468C149.918 27.1669 151.541 25.3771 153.638 24.0987C155.747 22.8075 158.24 22.1619 161.117 22.1619C163.507 22.1619 165.623 22.603 167.464 23.4851C169.318 24.3544 170.794 25.5881 171.894 27.1861C172.993 28.7713 173.619 30.625 173.773 32.7472H167.138C166.869 31.3281 166.23 30.1456 165.22 29.1996C164.223 28.2408 162.887 27.7614 161.213 27.7614C159.794 27.7614 158.547 28.1449 157.473 28.9119C156.399 29.6662 155.562 30.7528 154.961 32.1719C154.373 33.5909 154.079 35.2912 154.079 37.2727C154.079 39.2798 154.373 41.0057 154.961 42.4503C155.549 43.8821 156.374 44.9879 157.435 45.7678C158.509 46.5348 159.768 46.9183 161.213 46.9183C162.235 46.9183 163.149 46.7266 163.955 46.343C164.773 45.9467 165.457 45.3778 166.007 44.6364C166.556 43.8949 166.933 42.9936 167.138 41.9325H173.773C173.607 44.0163 172.993 45.8636 171.932 47.4744C170.871 49.0724 169.426 50.3253 167.598 51.233C165.77 52.1278 163.622 52.5753 161.155 52.5753ZM177.335 28.2408V22.5455H203.108V28.2408H193.577V52H186.865V28.2408H177.335ZM215.328 42.6037L227.121 22.5455H234.254V52H227.543V31.9226L215.788 52H208.635V22.5455H215.328V42.6037Z"/>
</mask>
<path d="M11.8736 52H10.8736V53H11.8736V52ZM11.8736 12.7273V11.7273H10.8736V12.7273H11.8736ZM18.9879 12.7273H19.9879V11.7273H18.9879V12.7273ZM18.9879 29.353H17.9879V30.353H18.9879V29.353ZM37.1861 29.353V30.353H38.1861V29.353H37.1861ZM37.1861 12.7273V11.7273H36.1861V12.7273H37.1861ZM44.3196 12.7273H45.3196V11.7273H44.3196V12.7273ZM44.3196 52V53H45.3196V52H44.3196ZM37.1861 52H36.1861V53H37.1861V52ZM37.1861 35.3168H38.1861V34.3168H37.1861V35.3168ZM18.9879 35.3168V34.3168H17.9879V35.3168H18.9879ZM18.9879 52V53H19.9879V52H18.9879ZM12.8736 52V12.7273H10.8736V52H12.8736ZM11.8736 13.7273H18.9879V11.7273H11.8736V13.7273ZM17.9879 12.7273V29.353H19.9879V12.7273H17.9879ZM18.9879 30.353H37.1861V28.353H18.9879V30.353ZM38.1861 29.353V12.7273H36.1861V29.353H38.1861ZM37.1861 13.7273H44.3196V11.7273H37.1861V13.7273ZM43.3196 12.7273V52H45.3196V12.7273H43.3196ZM44.3196 51H37.1861V53H44.3196V51ZM38.1861 52V35.3168H36.1861V52H38.1861ZM37.1861 34.3168H18.9879V36.3168H37.1861V34.3168ZM17.9879 35.3168V52H19.9879V35.3168H17.9879ZM18.9879 51H11.8736V53H18.9879V51ZM57.1197 50.6768L56.6052 51.5343L56.6052 51.5343L57.1197 50.6768ZM52.2106 45.3651L51.3182 45.8163L51.3202 45.8203L52.2106 45.3651ZM52.2106 29.3913L51.3192 28.9381L51.3172 28.9421L52.2106 29.3913ZM57.1197 24.0604L57.6342 24.9179L57.6342 24.9179L57.1197 24.0604ZM72.0771 24.0604L71.5626 24.9179L71.5626 24.9179L72.0771 24.0604ZM76.967 29.3913L76.0735 29.8405L76.0756 29.8445L76.967 29.3913ZM76.967 45.3651L76.0766 44.9099L76.0746 44.9138L76.967 45.3651ZM72.0771 50.6768L71.5626 49.8194L71.5626 49.8194L72.0771 50.6768ZM68.5487 45.7294L69.1814 46.5038L69.187 46.4992L68.5487 45.7294ZM70.8881 42.2393L69.9471 41.9009L69.9445 41.9083L70.8881 42.2393ZM70.8881 32.4787L69.9436 32.8072L69.9471 32.8171L70.8881 32.4787ZM68.5487 28.9695L69.187 28.1997L69.187 28.1997L68.5487 28.9695ZM60.6481 28.9695L60.0143 28.1959L60.0097 28.1997L60.6481 28.9695ZM58.2894 32.4787L57.3475 32.1429L57.3458 32.1476L58.2894 32.4787ZM58.2894 42.2393L57.3458 42.5704L57.3484 42.5778L58.2894 42.2393ZM60.6481 45.7294L60.0097 46.4992L60.02 46.5075L60.6481 45.7294ZM64.5984 51.5753C61.8721 51.5753 59.5635 50.9769 57.6342 49.8194L56.6052 51.5343C58.8946 52.908 61.5718 53.5753 64.5984 53.5753V51.5753ZM57.6342 49.8194C55.6917 48.6539 54.1826 47.0256 53.101 44.9099L51.3202 45.8203C52.5652 48.2556 54.3289 50.1686 56.6052 51.5343L57.6342 49.8194ZM53.103 44.9138C52.0356 42.8027 51.4847 40.3037 51.4847 37.3878H49.4847C49.4847 40.5571 50.0845 43.3763 51.3182 45.8163L53.103 44.9138ZM51.4847 37.3878C51.4847 34.4721 52.0355 31.9657 53.104 29.8405L51.3172 28.9421C50.0845 31.3937 49.4847 34.2183 49.4847 37.3878H51.4847ZM53.102 29.8445C54.1841 27.716 55.6931 26.0825 57.6342 24.9179L56.6052 23.2029C54.3275 24.5695 52.5638 26.49 51.3192 28.9382L53.102 29.8445ZM57.6342 24.9179C59.5635 23.7603 61.8721 23.1619 64.5984 23.1619V21.1619C61.5718 21.1619 58.8946 21.8292 56.6052 23.2029L57.6342 24.9179ZM64.5984 23.1619C67.3246 23.1619 69.6332 23.7603 71.5626 24.9179L72.5916 23.2029C70.3021 21.8292 67.625 21.1619 64.5984 21.1619V23.1619ZM71.5626 24.9179C73.5026 26.0819 75.0044 27.7141 76.0735 29.8405L77.8604 28.9421C76.6284 26.4919 74.8703 24.5701 72.5916 23.2029L71.5626 24.9179ZM76.0756 29.8445C77.1554 31.9687 77.712 34.4737 77.712 37.3878H79.712C79.712 34.2167 79.1052 31.3907 77.8584 28.9382L76.0756 29.8445ZM77.712 37.3878C77.712 40.3021 77.1554 42.7997 76.0766 44.9099L77.8574 45.8203C79.1053 43.3793 79.712 40.5587 79.712 37.3878H77.712ZM76.0746 44.9138C75.0058 47.0275 73.5041 48.6545 71.5626 49.8194L72.5916 51.5343C74.8688 50.168 76.627 48.2537 77.8594 45.8163L76.0746 44.9138ZM71.5626 49.8194C69.6332 50.9769 67.3246 51.5753 64.5984 51.5753V53.5753C67.625 53.5753 70.3021 52.908 72.5916 51.5343L71.5626 49.8194ZM64.6367 48.0142C66.3901 48.0142 67.9279 47.528 69.1814 46.5038L67.9159 44.955C67.0729 45.6439 66.0027 46.0142 64.6367 46.0142V48.0142ZM69.187 46.4992C70.3929 45.4991 71.2685 44.1756 71.8317 42.5704L69.9445 41.9083C69.485 43.2179 68.801 44.2211 67.9103 44.9596L69.187 46.4992ZM71.8291 42.5778C72.3979 40.9964 72.6744 39.2561 72.6744 37.3686H70.6744C70.6744 39.0607 70.4267 40.5675 69.9471 41.9009L71.8291 42.5778ZM72.6744 37.3686C72.6744 35.4692 72.3981 33.7224 71.8291 32.1403L69.9471 32.8171C70.4264 34.1498 70.6744 35.6629 70.6744 37.3686H72.6744ZM71.8326 32.1502C71.2701 30.5329 70.3948 29.2013 69.187 28.1997L67.9103 29.7392C68.7991 30.4762 69.4835 31.4842 69.9436 32.8072L71.8326 32.1502ZM69.187 28.1997C67.9335 27.1602 66.3937 26.6655 64.6367 26.6655V28.6655C65.999 28.6655 67.0672 29.04 67.9103 29.7392L69.187 28.1997ZM64.6367 26.6655C62.8476 26.6655 61.2828 27.1567 60.0143 28.1959L61.2818 29.743C62.1355 29.0436 63.2298 28.6655 64.6367 28.6655V26.6655ZM60.0097 28.1997C58.8039 29.1997 57.923 30.5286 57.3475 32.1429L59.2313 32.8145C59.7041 31.4885 60.3957 30.4779 61.2864 29.7392L60.0097 28.1997ZM57.3458 32.1476C56.7915 33.7275 56.5224 35.4717 56.5224 37.3686H58.5224C58.5224 35.6604 58.7646 34.1447 59.233 32.8098L57.3458 32.1476ZM56.5224 37.3686C56.5224 39.2536 56.7917 40.9913 57.3458 42.5704L59.233 41.9083C58.7644 40.5727 58.5224 39.0632 58.5224 37.3686H56.5224ZM57.3484 42.5778C57.9246 44.1799 58.8058 45.5007 60.0097 46.4992L61.2864 44.9596C60.3938 44.2194 59.7025 43.2136 59.2304 41.9009L57.3484 42.5778ZM60.02 46.5075C61.2884 47.5315 62.8512 48.0142 64.6367 48.0142V46.0142C63.2262 46.0142 62.1299 45.6404 61.2762 44.9513L60.02 46.5075ZM84.6039 52H83.6039V53H84.6039V52ZM84.6039 22.5455V21.5455H83.6039V22.5455H84.6039ZM105.237 24.6357L104.67 25.4588L104.672 25.4604L105.237 24.6357ZM106.561 34.5114L107.234 35.2509L107.234 35.2506L106.561 34.5114ZM101.901 36.6016L101.722 35.6177L101.818 37.5982L101.901 36.6016ZM105.966 37.7713L105.477 38.6437L105.481 38.6459L105.966 37.7713ZM108.727 40.3409L109.575 39.81L109.575 39.81L108.727 40.3409ZM108.44 48.2415L107.625 47.6611L107.624 47.6627L108.44 48.2415ZM104.739 51.022L105.114 51.949L105.118 51.9474L104.739 51.022ZM91.1046 46.5348H90.1046V47.5348H91.1046V46.5348ZM101.882 45.6335L102.518 46.4051L102.526 46.3984L101.882 45.6335ZM101.882 40.2834L101.187 41.003L101.194 41.0093L101.882 40.2834ZM91.1046 39.2287V38.2287H90.1046V39.2287H91.1046ZM91.1046 34.7415H90.1046V35.7415H91.1046V34.7415ZM99.5421 34.3388L99.9104 35.2685L99.918 35.2655L99.9255 35.2624L99.5421 34.3388ZM101.095 33.169L101.908 33.7523L101.915 33.7425L101.095 33.169ZM100.386 28.9695L99.8106 29.7875L99.8166 29.7917L100.386 28.9695ZM91.1046 28.1065V27.1065H90.1046V28.1065H91.1046ZM85.6039 52V22.5455H83.6039V52H85.6039ZM84.6039 23.5455H96.9725V21.5455H84.6039V23.5455ZM96.9725 23.5455C100.342 23.5455 102.874 24.2197 104.67 25.4588L105.805 23.8125C103.562 22.2646 100.583 21.5455 96.9725 21.5455V23.5455ZM104.672 25.4604C106.429 26.6649 107.286 28.2975 107.286 30.4652H109.286C109.286 27.6471 108.111 25.3934 105.803 23.8109L104.672 25.4604ZM107.286 30.4652C107.286 31.8519 106.816 32.9257 105.887 33.7722L107.234 35.2506C108.606 34.0004 109.286 32.3768 109.286 30.4652H107.286ZM105.887 33.7718C104.924 34.6485 103.561 35.2834 101.722 35.6177L102.08 37.5854C104.178 37.2039 105.921 36.4452 107.234 35.2509L105.887 33.7718ZM101.818 37.5982C103.246 37.7161 104.458 38.0723 105.477 38.6436L106.455 36.899C105.148 36.1663 103.65 35.7427 101.983 35.605L101.818 37.5982ZM105.481 38.6459C106.521 39.2221 107.312 39.9647 107.88 40.8718L109.575 39.81C108.814 38.595 107.764 37.6245 106.451 36.8967L105.481 38.6459ZM107.88 40.8718C108.435 41.7577 108.725 42.7907 108.725 44.0036H110.725C110.725 42.455 110.349 41.0463 109.575 39.81L107.88 40.8718ZM108.725 44.0036C108.725 45.4409 108.349 46.6458 107.625 47.6611L109.254 48.8219C110.244 47.4338 110.725 45.8133 110.725 44.0036H108.725ZM107.624 47.6627C106.911 48.6681 105.844 49.4889 104.36 50.0966L105.118 51.9474C106.881 51.2256 108.281 50.1927 109.255 48.8202L107.624 47.6627ZM104.364 50.0951C102.904 50.6859 101.083 51 98.8709 51V53C101.261 53 103.352 52.6621 105.114 51.949L104.364 50.0951ZM98.8709 51H84.6039V53H98.8709V51ZM91.1046 47.5348H98.8709V45.5348H91.1046V47.5348ZM98.8709 47.5348C100.299 47.5348 101.555 47.1985 102.518 46.4051L101.245 44.862C100.75 45.2702 99.9992 45.5348 98.8709 45.5348V47.5348ZM102.526 46.3984C103.504 45.5742 103.975 44.4504 103.975 43.1406H101.975C101.975 43.9274 101.716 44.4655 101.237 44.8686L102.526 46.3984ZM103.975 43.1406C103.975 41.7136 103.538 40.4754 102.569 39.5574L101.194 41.0093C101.682 41.472 101.975 42.1387 101.975 43.1406H103.975ZM102.576 39.5638C101.615 38.6368 100.337 38.2287 98.8709 38.2287V40.2287C99.9615 40.2287 100.691 40.5238 101.187 41.003L102.576 39.5638ZM98.8709 38.2287H91.1046V40.2287H98.8709V38.2287ZM90.1046 39.2287V46.5348H92.1046V39.2287H90.1046ZM91.1046 35.7415H97.1067V33.7415H91.1046V35.7415ZM97.1067 35.7415C98.1431 35.7415 99.0864 35.595 99.9104 35.2685L99.1737 33.4091C98.6426 33.6195 97.9624 33.7415 97.1067 33.7415V35.7415ZM99.9255 35.2624C100.741 34.9238 101.422 34.4292 101.908 33.7522L100.283 32.5858C100.053 32.906 99.6982 33.1912 99.1587 33.4152L99.9255 35.2624ZM101.915 33.7425C102.405 33.0422 102.632 32.2286 102.632 31.3473H100.632C100.632 31.8722 100.502 32.2731 100.276 32.5956L101.915 33.7425ZM102.632 31.3473C102.632 30.0089 102.056 28.9092 100.955 28.1473L99.8166 29.7917C100.378 30.1803 100.632 30.6658 100.632 31.3473H102.632ZM100.961 28.1514C99.9134 27.4149 98.5459 27.1065 96.9725 27.1065V29.1065C98.3138 29.1065 99.2219 29.3735 99.8107 29.7875L100.961 28.1514ZM96.9725 27.1065H91.1046V29.1065H96.9725V27.1065ZM90.1046 28.1065V34.7415H92.1046V28.1065H90.1046ZM120.823 50.6768L120.308 51.5343L120.308 51.5343L120.823 50.6768ZM115.914 45.3651L115.021 45.8163L115.023 45.8203L115.914 45.3651ZM115.914 29.3913L115.022 28.9381L115.02 28.9421L115.914 29.3913ZM120.823 24.0604L121.337 24.9179L121.337 24.9179L120.823 24.0604ZM135.78 24.0604L135.266 24.9179L135.266 24.9179L135.78 24.0604ZM140.67 29.3913L139.777 29.8405L139.779 29.8445L140.67 29.3913ZM140.67 45.3651L139.78 44.9099L139.778 44.9138L140.67 45.3651ZM135.78 50.6768L135.266 49.8194L135.266 49.8194L135.78 50.6768ZM132.252 45.7294L132.885 46.5038L132.89 46.4992L132.252 45.7294ZM134.591 42.2393L133.65 41.9009L133.648 41.9083L134.591 42.2393ZM134.591 32.4787L133.647 32.8072L133.65 32.8171L134.591 32.4787ZM132.252 28.9695L132.89 28.1997L132.89 28.1997L132.252 28.9695ZM124.351 28.9695L123.717 28.1959L123.713 28.1997L124.351 28.9695ZM121.993 32.4787L121.051 32.1429L121.049 32.1476L121.993 32.4787ZM121.993 42.2393L121.049 42.5704L121.052 42.5778L121.993 42.2393ZM124.351 45.7294L123.713 46.4992L123.723 46.5075L124.351 45.7294ZM128.301 51.5753C125.575 51.5753 123.267 50.9769 121.337 49.8194L120.308 51.5343C122.598 52.908 125.275 53.5753 128.301 53.5753V51.5753ZM121.337 49.8194C119.395 48.6539 117.886 47.0256 116.804 44.9099L115.023 45.8203C116.268 48.2556 118.032 50.1686 120.308 51.5343L121.337 49.8194ZM116.806 44.9138C115.739 42.8027 115.188 40.3037 115.188 37.3878H113.188C113.188 40.5571 113.788 43.3763 115.021 45.8163L116.806 44.9138ZM115.188 37.3878C115.188 34.4721 115.739 31.9657 116.807 29.8405L115.02 28.9421C113.788 31.3937 113.188 34.2183 113.188 37.3878H115.188ZM116.805 29.8445C117.887 27.716 119.396 26.0825 121.337 24.9179L120.308 23.2029C118.031 24.5695 116.267 26.49 115.022 28.9382L116.805 29.8445ZM121.337 24.9179C123.267 23.7603 125.575 23.1619 128.301 23.1619V21.1619C125.275 21.1619 122.598 21.8292 120.308 23.2029L121.337 24.9179ZM128.301 23.1619C131.028 23.1619 133.336 23.7603 135.266 24.9179L136.295 23.2029C134.005 21.8292 131.328 21.1619 128.301 21.1619V23.1619ZM135.266 24.9179C137.206 26.0819 138.708 27.7141 139.777 29.8405L141.564 28.9421C140.332 26.4919 138.573 24.5701 136.295 23.2029L135.266 24.9179ZM139.779 29.8445C140.859 31.9687 141.415 34.4737 141.415 37.3878H143.415C143.415 34.2167 142.808 31.3907 141.562 28.9382L139.779 29.8445ZM141.415 37.3878C141.415 40.3021 140.859 42.7997 139.78 44.9099L141.56 45.8203C142.808 43.3793 143.415 40.5587 143.415 37.3878H141.415ZM139.778 44.9138C138.709 47.0275 137.207 48.6545 135.266 49.8194L136.295 51.5343C138.572 50.168 140.33 48.2537 141.563 45.8163L139.778 44.9138ZM135.266 49.8194C133.336 50.9769 131.028 51.5753 128.301 51.5753V53.5753C131.328 53.5753 134.005 52.908 136.295 51.5343L135.266 49.8194ZM128.34 48.0142C130.093 48.0142 131.631 47.528 132.884 46.5038L131.619 44.955C130.776 45.6439 129.706 46.0142 128.34 46.0142V48.0142ZM132.89 46.4992C134.096 45.4991 134.972 44.1756 135.535 42.5704L133.648 41.9083C133.188 43.2179 132.504 44.2211 131.613 44.9596L132.89 46.4992ZM135.532 42.5778C136.101 40.9964 136.377 39.2561 136.377 37.3686H134.377C134.377 39.0607 134.13 40.5675 133.65 41.9009L135.532 42.5778ZM136.377 37.3686C136.377 35.4692 136.101 33.7224 135.532 32.1403L133.65 32.8171C134.13 34.1498 134.377 35.6629 134.377 37.3686H136.377ZM135.536 32.1502C134.973 30.5329 134.098 29.2013 132.89 28.1997L131.613 29.7392C132.502 30.4762 133.187 31.4842 133.647 32.8072L135.536 32.1502ZM132.89 28.1997C131.637 27.1602 130.097 26.6655 128.34 26.6655V28.6655C129.702 28.6655 130.77 29.04 131.613 29.7392L132.89 28.1997ZM128.34 26.6655C126.551 26.6655 124.986 27.1567 123.717 28.1959L124.985 29.743C125.839 29.0436 126.933 28.6655 128.34 28.6655V26.6655ZM123.713 28.1997C122.507 29.1997 121.626 30.5286 121.051 32.1429L122.934 32.8145C123.407 31.4885 124.099 30.4779 124.99 29.7392L123.713 28.1997ZM121.049 32.1476C120.495 33.7275 120.225 35.4717 120.225 37.3686H122.225C122.225 35.6604 122.468 34.1447 122.936 32.8098L121.049 32.1476ZM120.225 37.3686C120.225 39.2536 120.495 40.9913 121.049 42.5704L122.936 41.9083C122.468 40.5727 122.225 39.0632 122.225 37.3686H120.225ZM121.052 42.5778C121.628 44.1799 122.509 45.5007 123.713 46.4992L124.99 44.9596C124.097 44.2194 123.406 43.2136 122.934 41.9009L121.052 42.5778ZM123.723 46.5075C124.992 47.5315 126.554 48.0142 128.34 48.0142V46.0142C126.929 46.0142 125.833 45.6404 124.979 44.9513L123.723 46.5075ZM153.58 50.6385L153.056 51.49L153.058 51.4914L153.58 50.6385ZM148.729 45.2884L147.831 45.7295L147.834 45.7356L148.729 45.2884ZM148.767 29.468L149.661 29.9172L149.662 29.9153L148.767 29.468ZM153.638 24.0987L154.159 24.9525L154.16 24.9516L153.638 24.0987ZM167.464 23.4851L167.032 24.3869L167.039 24.3905L167.464 23.4851ZM171.894 27.1861L171.07 27.7529L171.072 27.756L171.894 27.1861ZM173.773 32.7472V33.7472H174.848L174.77 32.6751L173.773 32.7472ZM167.138 32.7472L166.155 32.9331L166.309 33.7472H167.138V32.7472ZM165.22 29.1996L164.527 29.9205L164.537 29.9294L165.22 29.1996ZM157.473 28.9119L158.048 29.7303L158.054 29.7257L157.473 28.9119ZM154.961 32.1719L154.04 31.782L154.037 31.789L154.961 32.1719ZM154.961 42.4503L154.035 42.8273L154.036 42.8302L154.961 42.4503ZM157.435 45.7678L156.843 46.5736L156.854 46.5815L157.435 45.7678ZM163.955 46.343L164.385 47.2459L164.391 47.243L163.955 46.343ZM166.007 44.6364L165.203 44.0408L165.203 44.0408L166.007 44.6364ZM167.138 41.9325V40.9325H166.312L166.156 41.7432L167.138 41.9325ZM173.773 41.9325L174.77 42.012L174.856 40.9325H173.773V41.9325ZM171.932 47.4744L172.765 48.0276L172.767 48.0245L171.932 47.4744ZM167.598 51.233L168.038 52.1311L168.043 52.1286L167.598 51.233ZM161.155 51.5753C158.364 51.5753 156.027 50.9638 154.103 49.7856L153.058 51.4914C155.352 52.8956 158.066 53.5753 161.155 53.5753V51.5753ZM154.105 49.787C152.172 48.5968 150.681 46.9559 149.623 44.8411L147.834 45.7356C149.053 48.1719 150.795 50.0978 153.056 51.49L154.105 49.787ZM149.626 44.8472C148.579 42.7174 148.041 40.2391 148.041 37.3878H146.041C146.041 40.4938 146.628 43.2826 147.831 45.7295L149.626 44.8472ZM148.041 37.3878C148.041 34.5261 148.591 32.0446 149.661 29.9172L147.874 29.0188C146.642 31.4682 146.041 34.2665 146.041 37.3878H148.041ZM149.662 29.9153C150.732 27.7736 152.23 26.1284 154.159 24.9525L153.117 23.2449C150.853 24.6259 149.103 26.5602 147.873 29.0208L149.662 29.9153ZM154.16 24.9516C156.088 23.7714 158.394 23.1619 161.117 23.1619V21.1619C158.087 21.1619 155.407 21.8437 153.116 23.2458L154.16 24.9516ZM161.117 23.1619C163.383 23.1619 165.347 23.5796 167.032 24.3869L167.896 22.5833C165.899 21.6264 163.631 21.1619 161.117 21.1619V23.1619ZM167.039 24.3905C168.742 25.1887 170.077 26.3094 171.07 27.7529L172.717 26.6193C171.512 24.8667 169.894 23.5201 167.889 22.5797L167.039 24.3905ZM171.072 27.756C172.059 29.1792 172.634 30.8569 172.776 32.8193L174.77 32.6751C174.605 30.3931 173.927 28.3634 172.715 26.6162L171.072 27.756ZM173.773 31.7472H167.138V33.7472H173.773V31.7472ZM168.121 32.5613C167.814 30.9435 167.076 29.5674 165.904 28.4697L164.537 29.9294C165.385 30.7238 165.925 31.7127 166.155 32.9331L168.121 32.5613ZM165.913 28.4787C164.692 27.3044 163.088 26.7614 161.213 26.7614V28.7614C162.687 28.7614 163.754 29.1771 164.527 29.9204L165.913 28.4787ZM161.213 26.7614C159.602 26.7614 158.148 27.2007 156.892 28.0982L158.054 29.7257C158.946 29.0891 159.985 28.7614 161.213 28.7614V26.7614ZM156.898 28.0936C155.646 28.973 154.701 30.221 154.04 31.782L155.882 32.5618C156.423 31.2846 157.152 30.3593 158.048 29.7302L156.898 28.0936ZM154.037 31.789C153.387 33.3591 153.079 35.1962 153.079 37.2727H155.079C155.079 35.3862 155.359 33.8227 155.885 32.5547L154.037 31.789ZM153.079 37.2727C153.079 39.3737 153.386 41.234 154.035 42.8273L155.887 42.0732C155.36 40.7773 155.079 39.186 155.079 37.2727H153.079ZM154.036 42.8302C154.682 44.4017 155.609 45.6672 156.843 46.5735L158.027 44.962C157.138 44.3087 156.417 43.3625 155.886 42.0704L154.036 42.8302ZM156.854 46.5815C158.113 47.4812 159.58 47.9183 161.213 47.9183V45.9183C159.956 45.9183 158.904 45.5884 158.016 44.954L156.854 46.5815ZM161.213 47.9183C162.362 47.9183 163.427 47.7021 164.385 47.2459L163.525 45.4402C162.872 45.751 162.108 45.9183 161.213 45.9183V47.9183ZM164.391 47.243C165.356 46.7753 166.166 46.101 166.81 45.2319L165.203 44.0408C164.748 44.6547 164.189 45.1182 163.519 45.4431L164.391 47.243ZM166.81 45.2319C167.463 44.3512 167.892 43.305 168.12 42.1218L166.156 41.7432C165.975 42.6822 165.65 43.4385 165.203 44.0408L166.81 45.2319ZM167.138 42.9325H173.773V40.9325H167.138V42.9325ZM172.776 41.853C172.622 43.7833 172.058 45.4659 171.097 46.9243L172.767 48.0245C173.929 46.2614 174.591 44.2494 174.77 42.012L172.776 41.853ZM171.099 46.9213C170.141 48.3636 168.835 49.5025 167.153 50.3373L168.043 52.1286C170.018 51.1481 171.601 49.7813 172.765 48.0276L171.099 46.9213ZM167.159 50.3348C165.493 51.1499 163.502 51.5753 161.155 51.5753V53.5753C163.743 53.5753 166.047 53.1057 168.038 52.1311L167.159 50.3348ZM177.335 28.2408H176.335V29.2408H177.335V28.2408ZM177.335 22.5455V21.5455H176.335V22.5455H177.335ZM203.108 22.5455H204.108V21.5455H203.108V22.5455ZM203.108 28.2408V29.2408H204.108V28.2408H203.108ZM193.577 28.2408V27.2408H192.577V28.2408H193.577ZM193.577 52V53H194.577V52H193.577ZM186.865 52H185.865V53H186.865V52ZM186.865 28.2408H187.865V27.2408H186.865V28.2408ZM178.335 28.2408V22.5455H176.335V28.2408H178.335ZM177.335 23.5455H203.108V21.5455H177.335V23.5455ZM202.108 22.5455V28.2408H204.108V22.5455H202.108ZM203.108 27.2408H193.577V29.2408H203.108V27.2408ZM192.577 28.2408V52H194.577V28.2408H192.577ZM193.577 51H186.865V53H193.577V51ZM187.865 52V28.2408H185.865V52H187.865ZM186.865 27.2408H177.335V29.2408H186.865V27.2408ZM215.328 42.6037H214.328V46.2775L216.19 43.1105L215.328 42.6037ZM227.121 22.5455V21.5455H226.549L226.259 22.0386L227.121 22.5455ZM234.254 22.5455H235.254V21.5455H234.254V22.5455ZM234.254 52V53H235.254V52H234.254ZM227.543 52H226.543V53H227.543V52ZM227.543 31.9226H228.543V28.2354L226.68 31.4173L227.543 31.9226ZM215.788 52V53H216.361L216.651 52.5053L215.788 52ZM208.635 52H207.635V53H208.635V52ZM208.635 22.5455V21.5455H207.635V22.5455H208.635ZM215.328 22.5455H216.328V21.5455H215.328V22.5455ZM216.19 43.1105L227.983 23.0523L226.259 22.0386L214.466 42.0969L216.19 43.1105ZM227.121 23.5455H234.254V21.5455H227.121V23.5455ZM233.254 22.5455V52H235.254V22.5455H233.254ZM234.254 51H227.543V53H234.254V51ZM228.543 52V31.9226H226.543V52H228.543ZM226.68 31.4173L214.925 51.4947L216.651 52.5053L228.406 32.4278L226.68 31.4173ZM215.788 51H208.635V53H215.788V51ZM209.635 52V22.5455H207.635V52H209.635ZM208.635 23.5455H215.328V21.5455H208.635V23.5455ZM214.328 22.5455V42.6037H216.328V22.5455H214.328Z" fill="white" mask="url(#path-1-outside-1_350_466)"/>
<path d="M3.94531 54V14H11.1914V30.9336H29.7266V14H36.9922V54H29.7266V37.0078H11.1914V54H3.94531ZM57.6465 54.5859C54.7168 54.5859 52.1777 53.9414 50.0293 52.6523C47.8809 51.3633 46.2142 49.5599 45.0293 47.2422C43.8574 44.9245 43.2715 42.2161 43.2715 39.1172C43.2715 36.0182 43.8574 33.3034 45.0293 30.9727C46.2142 28.6419 47.8809 26.832 50.0293 25.543C52.1777 24.2539 54.7168 23.6094 57.6465 23.6094C60.5762 23.6094 63.1152 24.2539 65.2637 25.543C67.4121 26.832 69.0723 28.6419 70.2441 30.9727C71.429 33.3034 72.0215 36.0182 72.0215 39.1172C72.0215 42.2161 71.429 44.9245 70.2441 47.2422C69.0723 49.5599 67.4121 51.3633 65.2637 52.6523C63.1152 53.9414 60.5762 54.5859 57.6465 54.5859ZM57.6855 48.9219C59.2741 48.9219 60.6022 48.4857 61.6699 47.6133C62.7376 46.7279 63.5319 45.543 64.0527 44.0586C64.5866 42.5742 64.8535 40.9206 64.8535 39.0977C64.8535 37.2617 64.5866 35.6016 64.0527 34.1172C63.5319 32.6198 62.7376 31.4284 61.6699 30.543C60.6022 29.6576 59.2741 29.2148 57.6855 29.2148C56.0579 29.2148 54.7038 29.6576 53.623 30.543C52.5553 31.4284 51.7546 32.6198 51.2207 34.1172C50.6999 35.6016 50.4395 37.2617 50.4395 39.0977C50.4395 40.9206 50.6999 42.5742 51.2207 44.0586C51.7546 45.543 52.5553 46.7279 53.623 47.6133C54.7038 48.4857 56.0579 48.9219 57.6855 48.9219ZM78.0225 54V24H90.6201C94.1748 24 96.9808 24.7096 99.0381 26.1289C101.108 27.5482 102.144 29.5273 102.144 32.0664C102.144 33.7461 101.558 35.1198 100.386 36.1875C99.2269 37.2422 97.6449 37.9518 95.6396 38.3164C97.2152 38.4466 98.5954 38.8437 99.7803 39.5078C100.978 40.1719 101.916 41.0443 102.593 42.125C103.27 43.2057 103.608 44.4492 103.608 45.8555C103.608 47.5091 103.172 48.9479 102.3 50.1719C101.44 51.3828 100.184 52.3268 98.5303 53.0039C96.8896 53.668 94.8975 54 92.5537 54H78.0225ZM84.6436 48.4336H92.5537C93.8558 48.4336 94.8779 48.1276 95.6201 47.5156C96.3623 46.8906 96.7334 46.0443 96.7334 44.9766C96.7334 43.7396 96.3623 42.7695 95.6201 42.0664C94.8779 41.3503 93.8558 40.9922 92.5537 40.9922H84.6436V48.4336ZM84.6436 36.4219H90.7568C91.7204 36.4219 92.5472 36.2852 93.2373 36.0117C93.9274 35.7253 94.4548 35.3281 94.8193 34.8203C95.1839 34.2995 95.3662 33.681 95.3662 32.9648C95.3662 31.9362 94.943 31.1289 94.0967 30.543C93.2633 29.957 92.1045 29.6641 90.6201 29.6641H84.6436V36.4219ZM122.529 54.5859C119.6 54.5859 117.061 53.9414 114.912 52.6523C112.764 51.3633 111.097 49.5599 109.912 47.2422C108.74 44.9245 108.154 42.2161 108.154 39.1172C108.154 36.0182 108.74 33.3034 109.912 30.9727C111.097 28.6419 112.764 26.832 114.912 25.543C117.061 24.2539 119.6 23.6094 122.529 23.6094C125.459 23.6094 127.998 24.2539 130.146 25.543C132.295 26.832 133.955 28.6419 135.127 30.9727C136.312 33.3034 136.904 36.0182 136.904 39.1172C136.904 42.2161 136.312 44.9245 135.127 47.2422C133.955 49.5599 132.295 51.3633 130.146 52.6523C127.998 53.9414 125.459 54.5859 122.529 54.5859ZM122.568 48.9219C124.157 48.9219 125.485 48.4857 126.553 47.6133C127.62 46.7279 128.415 45.543 128.936 44.0586C129.469 42.5742 129.736 40.9206 129.736 39.0977C129.736 37.2617 129.469 35.6016 128.936 34.1172C128.415 32.6198 127.62 31.4284 126.553 30.543C125.485 29.6576 124.157 29.2148 122.568 29.2148C120.941 29.2148 119.587 29.6576 118.506 30.543C117.438 31.4284 116.637 32.6198 116.104 34.1172C115.583 35.6016 115.322 37.2617 115.322 39.0977C115.322 40.9206 115.583 42.5742 116.104 44.0586C116.637 45.543 117.438 46.7279 118.506 47.6133C119.587 48.4857 120.941 48.9219 122.568 48.9219ZM155.991 54.5859C152.996 54.5859 150.425 53.9284 148.276 52.6133C146.141 51.2982 144.494 49.4818 143.335 47.1641C142.189 44.8333 141.616 42.151 141.616 39.1172C141.616 36.0703 142.202 33.3815 143.374 31.0508C144.546 28.707 146.2 26.8841 148.335 25.582C150.483 24.2669 153.022 23.6094 155.952 23.6094C158.387 23.6094 160.542 24.0586 162.417 24.957C164.305 25.8424 165.809 27.099 166.929 28.7266C168.049 30.3411 168.687 32.2292 168.843 34.3906H162.085C161.812 32.9453 161.16 31.7409 160.132 30.7773C159.116 29.8008 157.756 29.3125 156.05 29.3125C154.604 29.3125 153.335 29.7031 152.241 30.4844C151.147 31.2526 150.295 32.3594 149.683 33.8047C149.084 35.25 148.784 36.9818 148.784 39C148.784 41.0443 149.084 42.8021 149.683 44.2734C150.282 45.7318 151.121 46.8581 152.202 47.6523C153.296 48.4336 154.578 48.8242 156.05 48.8242C157.091 48.8242 158.022 48.6289 158.843 48.2383C159.676 47.8346 160.373 47.2552 160.933 46.5C161.493 45.7448 161.877 44.8268 162.085 43.7461H168.843C168.674 45.8685 168.049 47.75 166.968 49.3906C165.887 51.0182 164.416 52.2943 162.554 53.2187C160.692 54.1302 158.504 54.5859 155.991 54.5859ZM172.471 29.8008V24H198.721V29.8008H189.014V54H182.178V29.8008H172.471ZM211.167 44.4297L223.179 24H230.444V54H223.608V33.5508L211.636 54H204.351V24H211.167V44.4297Z" fill="white"/>
</svg>
